<svg width="258" height="600" viewBox="0 0 258 600" fill="none" xmlns="http://www.w3.org/2000/svg">
<g filter="url(#filter0_b)">
<rect x="172" width="61" height="61" rx="30.5" fill="#001C43"/>
</g>
<g filter="url(#filter1_b)">
<rect x="233" y="59" width="21" height="21" rx="10.5" fill="#001C43"/>
</g>
<g filter="url(#filter2_b)">
<rect width="9" height="9" rx="4.5" transform="matrix(1 0 0 -1 249 43)" fill="#001C43"/>
</g>
<g filter="url(#filter3_b)">
<rect x="72" y="505" width="67" height="67" rx="33.5" fill="#001C43"/>
</g>
<g filter="url(#filter4_b)">
<rect x="199" y="314" width="21" height="21" rx="10.5" fill="#001C43"/>
</g>
<g filter="url(#filter5_b)">
<rect x="57" y="7" width="163" height="593" rx="63" fill="white" fill-opacity="0.35"/>
<rect x="58" y="8" width="161" height="591" rx="62" stroke="white" stroke-width="2"/>
</g>
<g filter="url(#filter6_d)">
<rect x="106" y="34" width="75" height="505" rx="37.5" fill="#F1F3F9"/>
<rect x="107" y="35" width="73" height="503" rx="36.5" stroke="white" stroke-width="2"/>
</g>
<rect y="251" width="172" height="53" rx="26.5" fill="#001C43"/>
<path d="M144.893 284.289C144.952 284.315 144.99 284.366 145.01 284.443C145.029 284.52 145.02 284.597 144.981 284.674L142.566 287.865C142.178 288.377 141.732 288.787 141.228 289.095C140.724 289.402 140.21 289.582 139.686 289.633C139.163 289.684 138.639 289.633 138.115 289.479C137.592 289.326 137.117 289.005 136.69 288.518C136.166 287.98 135.759 287.327 135.468 286.558C135.177 285.789 135.022 285.02 135.003 284.251C134.983 283.482 135.071 282.7 135.264 281.906C135.458 281.111 135.788 280.42 136.254 279.83L140.006 274.871C140.607 274.076 141.306 273.487 142.101 273.102C142.896 272.718 143.71 272.615 144.544 272.795C145.281 272.949 145.863 273.231 146.29 273.641C146.716 274.051 147.056 274.525 147.308 275.063C147.347 275.191 147.342 275.287 147.293 275.351C147.245 275.415 147.192 275.473 147.133 275.524C147.075 275.576 147.007 275.653 146.93 275.755L146.726 276.024C146.532 276.306 146.299 276.447 146.028 276.447C145.756 276.447 145.509 276.3 145.286 276.005C145.063 275.71 144.816 275.486 144.544 275.332C144.273 275.178 143.972 275.114 143.643 275.14C143.313 275.166 143.022 275.23 142.77 275.332C142.518 275.435 142.256 275.665 141.984 276.024L137.679 281.714C137.427 282.047 137.243 282.431 137.126 282.867C137.01 283.303 136.971 283.738 137.01 284.174C137.049 284.61 137.146 285.046 137.301 285.481C137.456 285.917 137.708 286.263 138.057 286.519C138.542 286.955 139.066 287.109 139.628 286.981C140.19 286.852 140.666 286.545 141.053 286.058L142.915 283.636C142.954 283.559 143.012 283.546 143.09 283.597C143.672 283.931 144.273 284.161 144.893 284.289ZM152.981 264.837C153.504 265.375 153.912 266.016 154.202 266.759C154.493 267.503 154.658 268.271 154.697 269.066C154.736 269.86 154.648 270.655 154.435 271.449C154.222 272.244 153.882 272.936 153.417 273.525L149.664 278.485C149.063 279.279 148.365 279.856 147.57 280.214C146.775 280.573 145.95 280.676 145.097 280.522C144.36 280.394 143.788 280.112 143.381 279.676C142.973 279.241 142.634 278.766 142.363 278.254C142.324 278.151 142.333 278.062 142.392 277.985L142.915 277.293C143.129 277.036 143.371 276.908 143.643 276.908C143.914 276.908 144.147 277.036 144.341 277.293C144.573 277.6 144.835 277.831 145.126 277.985C145.417 278.139 145.718 278.215 146.028 278.215C146.338 278.215 146.639 278.139 146.93 277.985C147.221 277.831 147.473 277.6 147.686 277.293L151.992 271.642C152.244 271.308 152.428 270.911 152.544 270.45C152.661 269.989 152.699 269.54 152.661 269.104C152.622 268.669 152.515 268.246 152.341 267.836C152.166 267.426 151.914 267.08 151.584 266.798C151.119 266.388 150.605 266.234 150.042 266.336C149.48 266.439 148.995 266.759 148.588 267.297L146.755 269.719C146.697 269.796 146.639 269.809 146.581 269.758C146.038 269.45 145.436 269.207 144.777 269.027C144.7 269.027 144.661 268.976 144.661 268.874C144.661 268.771 144.67 268.707 144.69 268.681L147.104 265.491C147.492 264.978 147.938 264.568 148.442 264.26C148.947 263.953 149.451 263.761 149.955 263.684C150.459 263.607 150.983 263.671 151.526 263.876C152.069 264.081 152.554 264.401 152.981 264.837Z" fill="#F1F3F9"/>
<g clip-path="url(#clip0)">
<path d="M150.867 161H135.533C134.687 161 134 161.672 134 162.5V173.5C134 174.328 134.687 175 135.533 175H150.867C151.713 175 152.4 174.328 152.4 173.5V162.5C152.4 161.672 151.713 161 150.867 161ZM150.867 173.5H135.533V162.5H150.867V173.5ZM140.644 168C141.772 168 142.689 167.103 142.689 166C142.689 164.897 141.772 164 140.644 164C139.517 164 138.6 164.897 138.6 166C138.6 167.103 139.517 168 140.644 168ZM137.782 172H143.507C143.903 172 144.222 171.731 144.222 171.4V170.8C144.222 169.806 143.261 169 142.076 169C141.731 169 141.478 169.25 140.644 169.25C139.785 169.25 139.578 169 139.213 169C138.028 169 137.067 169.806 137.067 170.8V171.4C137.067 171.731 137.386 172 137.782 172ZM145.5 170H149.078C149.218 170 149.333 169.887 149.333 169.75V169.25C149.333 169.113 149.218 169 149.078 169H145.5C145.359 169 145.244 169.113 145.244 169.25V169.75C145.244 169.887 145.359 170 145.5 170ZM145.5 168H149.078C149.218 168 149.333 167.887 149.333 167.75V167.25C149.333 167.113 149.218 167 149.078 167H145.5C145.359 167 145.244 167.113 145.244 167.25V167.75C145.244 167.887 145.359 168 145.5 168ZM145.5 166H149.078C149.218 166 149.333 165.887 149.333 165.75V165.25C149.333 165.113 149.218 165 149.078 165H145.5C145.359 165 145.244 165.113 145.244 165.25V165.75C145.244 165.887 145.359 166 145.5 166Z" fill="#001C43"/>
</g>
<path d="M151.361 216.2L146.737 211.577C146.608 211.448 146.434 211.375 146.252 211.375H137.125C136.745 211.375 136.438 211.682 136.438 212.062V229.938C136.438 230.318 136.745 230.625 137.125 230.625H150.875C151.255 230.625 151.562 230.318 151.562 229.938V216.688C151.562 216.505 151.489 216.329 151.361 216.2ZM149.977 217.004H145.934V212.961L149.977 217.004ZM150.016 229.078H137.984V212.922H144.473V217.562C144.473 217.802 144.568 218.031 144.737 218.201C144.906 218.37 145.136 218.465 145.375 218.465H150.016V229.078ZM143.828 223.277H139.875C139.78 223.277 139.703 223.355 139.703 223.449V224.48C139.703 224.575 139.78 224.652 139.875 224.652H143.828C143.923 224.652 144 224.575 144 224.48V223.449C144 223.355 143.923 223.277 143.828 223.277ZM139.703 220.527V221.559C139.703 221.653 139.78 221.73 139.875 221.73H148.125C148.22 221.73 148.297 221.653 148.297 221.559V220.527C148.297 220.433 148.22 220.355 148.125 220.355H139.875C139.78 220.355 139.703 220.433 139.703 220.527Z" fill="#001C43"/>
<path d="M150.583 65.2497C150.583 64.4705 149.946 63.833 149.167 63.833H137.833C137.054 63.833 136.417 64.4705 136.417 65.2497V73.7497C136.417 74.5288 137.054 75.1663 137.833 75.1663H149.167C149.946 75.1663 150.583 74.5288 150.583 73.7497V65.2497ZM149.167 65.2497L143.5 68.7913L137.833 65.2497H149.167ZM149.167 73.7497H137.833V66.6663L143.5 70.208L149.167 66.6663V73.7497Z" fill="#001C43"/>
<g clip-path="url(#clip1)">
<path d="M148.125 319.375C148.49 319.375 148.839 319.52 149.097 319.778C149.355 320.036 149.5 320.385 149.5 320.75V337.25C149.5 337.615 149.355 337.964 149.097 338.222C148.839 338.48 148.49 338.625 148.125 338.625H139.875C139.51 338.625 139.161 338.48 138.903 338.222C138.645 337.964 138.5 337.615 138.5 337.25V320.75C138.5 320.385 138.645 320.036 138.903 319.778C139.161 319.52 139.51 319.375 139.875 319.375H148.125ZM139.875 318C139.146 318 138.446 318.29 137.93 318.805C137.415 319.321 137.125 320.021 137.125 320.75V337.25C137.125 337.979 137.415 338.679 137.93 339.195C138.446 339.71 139.146 340 139.875 340H148.125C148.854 340 149.554 339.71 150.07 339.195C150.585 338.679 150.875 337.979 150.875 337.25V320.75C150.875 320.021 150.585 319.321 150.07 318.805C149.554 318.29 148.854 318 148.125 318H139.875Z" fill="#001C43"/>
<path d="M144 337.25C144.365 337.25 144.714 337.105 144.972 336.847C145.23 336.589 145.375 336.24 145.375 335.875C145.375 335.51 145.23 335.161 144.972 334.903C144.714 334.645 144.365 334.5 144 334.5C143.635 334.5 143.286 334.645 143.028 334.903C142.77 335.161 142.625 335.51 142.625 335.875C142.625 336.24 142.77 336.589 143.028 336.847C143.286 337.105 143.635 337.25 144 337.25Z" fill="#001C43"/>
</g>
<g clip-path="url(#clip2)">
<path d="M152.195 116.235C147.397 111.754 139.934 111.756 135.138 116.235C134.957 116.403 134.954 116.689 135.128 116.863L136.056 117.792C136.222 117.959 136.49 117.963 136.662 117.803C140.614 114.147 146.718 114.146 150.671 117.803C150.844 117.963 151.112 117.959 151.278 117.792L152.205 116.863C152.379 116.689 152.376 116.403 152.195 116.235ZM143.667 121.625C142.709 121.625 141.933 122.408 141.933 123.375C141.933 124.342 142.709 125.125 143.667 125.125C144.624 125.125 145.4 124.342 145.4 123.375C145.4 122.408 144.624 121.625 143.667 121.625ZM149.156 119.339C146.034 116.552 141.296 116.555 138.178 119.339C137.991 119.506 137.985 119.796 138.162 119.972L139.095 120.902C139.257 121.064 139.519 121.075 139.692 120.924C141.966 118.939 145.373 118.944 147.641 120.924C147.814 121.075 148.076 121.064 148.238 120.902L149.171 119.972C149.348 119.796 149.342 119.506 149.156 119.339Z" fill="#001C43"/>
</g>
<path d="M143.5 370.875C141.596 370.875 139.735 371.439 138.153 372.497C136.57 373.555 135.336 375.058 134.608 376.817C133.879 378.575 133.689 380.511 134.06 382.378C134.431 384.245 135.348 385.96 136.694 387.306C138.04 388.652 139.755 389.569 141.622 389.94C143.489 390.311 145.425 390.121 147.183 389.392C148.942 388.664 150.445 387.43 151.503 385.847C152.561 384.265 153.125 382.404 153.125 380.5C153.125 377.947 152.111 375.499 150.306 373.694C148.501 371.889 146.053 370.875 143.5 370.875ZM143.5 388.375C141.942 388.375 140.42 387.913 139.125 387.048C137.83 386.183 136.82 384.953 136.224 383.514C135.628 382.075 135.472 380.491 135.776 378.964C136.08 377.436 136.83 376.033 137.932 374.932C139.033 373.83 140.436 373.08 141.964 372.776C143.491 372.472 145.075 372.628 146.514 373.224C147.953 373.82 149.183 374.83 150.048 376.125C150.913 377.42 151.375 378.942 151.375 380.5C151.375 382.589 150.545 384.592 149.068 386.068C147.592 387.545 145.589 388.375 143.5 388.375ZM145.25 376.125V375.25C145.25 375.018 145.158 374.795 144.994 374.631C144.83 374.467 144.607 374.375 144.375 374.375C144.143 374.375 143.92 374.467 143.756 374.631C143.592 374.795 143.5 375.018 143.5 375.25V376.125H142.625V375.25C142.625 375.018 142.533 374.795 142.369 374.631C142.205 374.467 141.982 374.375 141.75 374.375C141.518 374.375 141.295 374.467 141.131 374.631C140.967 374.795 140.875 375.018 140.875 375.25V376.125H140C139.768 376.125 139.545 376.217 139.381 376.381C139.217 376.545 139.125 376.768 139.125 377C139.125 377.232 139.217 377.455 139.381 377.619C139.545 377.783 139.768 377.875 140 377.875H140.875V383.125H140C139.768 383.125 139.545 383.217 139.381 383.381C139.217 383.545 139.125 383.768 139.125 384C139.125 384.232 139.217 384.455 139.381 384.619C139.545 384.783 139.768 384.875 140 384.875H140.875V385.75C140.875 385.982 140.967 386.205 141.131 386.369C141.295 386.533 141.518 386.625 141.75 386.625C141.982 386.625 142.205 386.533 142.369 386.369C142.533 386.205 142.625 385.982 142.625 385.75V384.875H143.5V385.75C143.5 385.982 143.592 386.205 143.756 386.369C143.92 386.533 144.143 386.625 144.375 386.625C144.607 386.625 144.83 386.533 144.994 386.369C145.158 386.205 145.25 385.982 145.25 385.75V384.875C145.946 384.875 146.614 384.598 147.106 384.106C147.598 383.614 147.875 382.946 147.875 382.25C147.874 381.604 147.634 380.98 147.201 380.5C147.634 380.02 147.874 379.396 147.875 378.75C147.875 378.054 147.598 377.386 147.106 376.894C146.614 376.402 145.946 376.125 145.25 376.125ZM145.25 383.125H142.625V381.375H145.25C145.482 381.375 145.705 381.467 145.869 381.631C146.033 381.795 146.125 382.018 146.125 382.25C146.125 382.482 146.033 382.705 145.869 382.869C145.705 383.033 145.482 383.125 145.25 383.125ZM145.25 379.625H142.625V377.875H145.25C145.482 377.875 145.705 377.967 145.869 378.131C146.033 378.295 146.125 378.518 146.125 378.75C146.125 378.982 146.033 379.205 145.869 379.369C145.705 379.533 145.482 379.625 145.25 379.625Z" fill="#001C43"/>
<path d="M140.446 440.5H140.376C138.966 440.487 137.576 440.162 136.307 439.546C136.074 439.436 135.882 439.255 135.759 439.028C135.636 438.802 135.589 438.541 135.625 438.286C135.664 438.029 135.783 437.791 135.965 437.605C136.147 437.42 136.383 437.297 136.64 437.254C137.426 437.149 138.183 436.884 138.862 436.475C137.682 435.552 136.774 434.327 136.233 432.93C135.692 431.533 135.54 430.015 135.791 428.539C135.825 428.305 135.926 428.085 136.081 427.907C136.236 427.729 136.439 427.599 136.666 427.532C136.887 427.463 137.123 427.46 137.346 427.524C137.568 427.588 137.767 427.715 137.917 427.891C138.428 428.561 139.071 429.12 139.805 429.534C140.539 429.947 141.35 430.207 142.187 430.297C142.227 429.266 142.67 428.292 143.421 427.585C143.796 427.226 144.239 426.945 144.723 426.759C145.207 426.573 145.724 426.485 146.243 426.5C146.762 426.516 147.272 426.634 147.745 426.849C148.217 427.064 148.642 427.37 148.995 427.751C149.087 427.832 149.201 427.884 149.323 427.9C149.444 427.915 149.568 427.894 149.677 427.839C149.886 427.74 150.118 427.703 150.347 427.732C150.576 427.76 150.792 427.854 150.97 428C151.148 428.147 151.281 428.341 151.352 428.561C151.424 428.78 151.432 429.015 151.375 429.239C151.173 430.07 150.791 430.847 150.255 431.514C150.137 434.003 149.039 436.344 147.202 438.028C145.365 439.711 142.936 440.6 140.446 440.5ZM140.446 438.75H140.516C141.533 438.785 142.548 438.618 143.5 438.258C144.452 437.898 145.323 437.352 146.063 436.653C146.803 435.954 147.397 435.115 147.81 434.185C148.223 433.254 148.447 432.251 148.47 431.234C148.484 430.955 148.599 430.69 148.794 430.49C149.007 430.22 149.189 429.926 149.336 429.615C149.021 429.615 148.709 429.549 148.421 429.421C148.133 429.293 147.875 429.106 147.665 428.871C147.462 428.67 147.222 428.512 146.957 428.405C146.693 428.299 146.41 428.246 146.125 428.25C145.837 428.242 145.55 428.292 145.282 428.395C145.013 428.499 144.767 428.655 144.559 428.854C144.277 429.12 144.071 429.457 143.961 429.828C143.85 430.2 143.839 430.594 143.929 430.971L144.156 431.969L143.132 432.039C142.083 432.124 141.028 431.981 140.04 431.618C139.052 431.255 138.155 430.682 137.41 429.939C137.378 431.09 137.666 432.229 138.242 433.226C138.818 434.224 139.66 435.043 140.674 435.591L141.505 436.064L140.954 436.851C140.358 437.633 139.541 438.218 138.609 438.531C139.207 438.681 139.821 438.754 140.437 438.75H140.446Z" fill="#001C43"/>
<path d="M144.917 496.167H141.25C141.007 496.167 140.774 496.07 140.602 495.898C140.43 495.726 140.333 495.493 140.333 495.25V489.567H138.5C138.257 489.567 138.024 489.47 137.852 489.298C137.68 489.126 137.583 488.893 137.583 488.65V485.35C137.583 485.107 137.68 484.874 137.852 484.702C138.024 484.53 138.257 484.434 138.5 484.434H140.333V482.875C140.398 481.479 141.012 480.164 142.043 479.219C143.074 478.275 144.437 477.776 145.833 477.834H148.583C148.827 477.834 149.06 477.93 149.232 478.102C149.404 478.274 149.5 478.507 149.5 478.75V482.05C149.5 482.293 149.404 482.526 149.232 482.698C149.06 482.87 148.827 482.967 148.583 482.967H145.833V484.434H148.583C148.725 484.432 148.865 484.464 148.992 484.526C149.119 484.588 149.23 484.679 149.317 484.791C149.402 484.905 149.46 485.037 149.485 485.177C149.511 485.317 149.503 485.461 149.463 485.598L148.547 488.898C148.491 489.096 148.371 489.27 148.205 489.391C148.038 489.513 147.836 489.574 147.63 489.567H145.833V495.25C145.833 495.493 145.737 495.726 145.565 495.898C145.393 496.07 145.16 496.167 144.917 496.167ZM142.167 494.334H144V488.65C144 488.407 144.097 488.174 144.269 488.002C144.441 487.83 144.674 487.734 144.917 487.734H146.97L147.373 486.267H144.917C144.674 486.267 144.441 486.17 144.269 485.998C144.097 485.826 144 485.593 144 485.35V482.875C144.024 482.405 144.227 481.962 144.568 481.638C144.91 481.313 145.363 481.133 145.833 481.134H147.667V479.667H145.833C144.923 479.611 144.027 479.917 143.341 480.518C142.655 481.118 142.233 481.965 142.167 482.875V485.35C142.167 485.593 142.07 485.826 141.898 485.998C141.726 486.17 141.493 486.267 141.25 486.267H139.417V487.734H141.25C141.493 487.734 141.726 487.83 141.898 488.002C142.07 488.174 142.167 488.407 142.167 488.65V494.334Z" fill="#001C43"/>
<path d="M143.001 519.8C142.712 519.8 142.426 519.857 142.159 519.967C141.891 520.078 141.649 520.24 141.444 520.444C141.24 520.649 141.078 520.891 140.967 521.159C140.857 521.426 140.8 521.712 140.8 522.001C140.8 522.29 140.857 522.576 140.967 522.843C141.078 523.11 141.24 523.353 141.444 523.557C141.649 523.762 141.891 523.924 142.159 524.034C142.426 524.145 142.712 524.202 143.001 524.202C143.585 524.202 144.144 523.97 144.557 523.557C144.97 523.144 145.201 522.584 145.201 522C145.201 521.417 144.969 520.857 144.556 520.444C144.143 520.031 143.584 519.8 143 519.8H143.001ZM136.001 519.8C135.712 519.8 135.426 519.857 135.159 519.967C134.891 520.078 134.649 520.24 134.444 520.444C134.24 520.649 134.078 520.891 133.967 521.159C133.857 521.426 133.8 521.712 133.8 522.001C133.8 522.29 133.857 522.576 133.967 522.843C134.078 523.11 134.24 523.353 134.444 523.557C134.649 523.762 134.891 523.924 135.159 524.034C135.426 524.145 135.712 524.202 136.001 524.202C136.585 524.202 137.144 523.97 137.557 523.557C137.97 523.144 138.201 522.584 138.201 522C138.201 521.417 137.969 520.857 137.556 520.444C137.143 520.031 136.584 519.8 136 519.8H136.001ZM150.001 519.8C149.712 519.8 149.426 519.857 149.159 519.967C148.891 520.078 148.649 520.24 148.444 520.444C148.24 520.649 148.078 520.891 147.967 521.159C147.857 521.426 147.8 521.712 147.8 522.001C147.8 522.29 147.857 522.576 147.967 522.843C148.078 523.11 148.24 523.353 148.444 523.557C148.649 523.762 148.891 523.924 149.159 524.034C149.426 524.145 149.712 524.202 150.001 524.202C150.585 524.202 151.144 523.97 151.557 523.557C151.97 523.144 152.201 522.584 152.201 522C152.201 521.417 151.969 520.857 151.556 520.444C151.143 520.031 150.584 519.8 150 519.8H150.001Z" fill="#001C43"/>
<path d="M55.4652 284.288C53.4332 284.288 51.8812 283.688 50.8092 282.488C49.7372 281.288 49.2012 279.376 49.2012 276.752V268.352H52.7532V277.112C52.7532 278.648 52.9852 279.72 53.4492 280.328C53.9132 280.936 54.5852 281.24 55.4652 281.24C56.3452 281.24 57.0252 280.936 57.5052 280.328C57.9852 279.72 58.2252 278.648 58.2252 277.112V268.352H61.6332V276.752C61.6332 279.376 61.1052 281.288 60.0492 282.488C59.0092 283.688 57.4812 284.288 55.4652 284.288ZM65.2582 284V268.352H70.8982C71.7302 268.352 72.5062 268.432 73.2262 268.592C73.9622 268.752 74.6022 269.024 75.1462 269.408C75.6902 269.776 76.1222 270.272 76.4422 270.896C76.7622 271.52 76.9222 272.296 76.9222 273.224C76.9222 274.376 76.6662 275.328 76.1542 276.08C75.6582 276.816 74.9862 277.368 74.1382 277.736L77.6902 284H73.7302L70.7302 278.36H68.7862V284H65.2582ZM68.7862 275.552H70.6102C71.5382 275.552 72.2422 275.36 72.7222 274.976C73.2182 274.576 73.4662 273.992 73.4662 273.224C73.4662 272.456 73.2182 271.92 72.7222 271.616C72.2422 271.312 71.5382 271.16 70.6102 271.16H68.7862V275.552ZM79.9769 284V268.352H83.5049V281.024H89.6969V284H79.9769Z" fill="white"/>
<defs>
<filter id="filter0_b" x="168" y="-4" width="69" height="69" filterUnits="userSpaceOnUse" color-interpolation-filters="sRGB">
<feFlood flood-opacity="0" result="BackgroundImageFix"/>
<feGaussianBlur in="BackgroundImage" stdDeviation="2"/>
<feComposite in2="SourceAlpha" operator="in" result="effect1_backgroundBlur"/>
<feBlend mode="normal" in="SourceGraphic" in2="effect1_backgroundBlur" result="shape"/>
</filter>
<filter id="filter1_b" x="229" y="55" width="29" height="29" filterUnits="userSpaceOnUse" color-interpolation-filters="sRGB">
<feFlood flood-opacity="0" result="BackgroundImageFix"/>
<feGaussianBlur in="BackgroundImage" stdDeviation="2"/>
<feComposite in2="SourceAlpha" operator="in" result="effect1_backgroundBlur"/>
<feBlend mode="normal" in="SourceGraphic" in2="effect1_backgroundBlur" result="shape"/>
</filter>
<filter id="filter2_b" x="245" y="30" width="17" height="17" filterUnits="userSpaceOnUse" color-interpolation-filters="sRGB">
<feFlood flood-opacity="0" result="BackgroundImageFix"/>
<feGaussianBlur in="BackgroundImage" stdDeviation="2"/>
<feComposite in2="SourceAlpha" operator="in" result="effect1_backgroundBlur"/>
<feBlend mode="normal" in="SourceGraphic" in2="effect1_backgroundBlur" result="shape"/>
</filter>
<filter id="filter3_b" x="68" y="501" width="75" height="75" filterUnits="userSpaceOnUse" color-interpolation-filters="sRGB">
<feFlood flood-opacity="0" result="BackgroundImageFix"/>
<feGaussianBlur in="BackgroundImage" stdDeviation="2"/>
<feComposite in2="SourceAlpha" operator="in" result="effect1_backgroundBlur"/>
<feBlend mode="normal" in="SourceGraphic" in2="effect1_backgroundBlur" result="shape"/>
</filter>
<filter id="filter4_b" x="195" y="310" width="29" height="29" filterUnits="userSpaceOnUse" color-interpolation-filters="sRGB">
<feFlood flood-opacity="0" result="BackgroundImageFix"/>
<feGaussianBlur in="BackgroundImage" stdDeviation="2"/>
<feComposite in2="SourceAlpha" operator="in" result="effect1_backgroundBlur"/>
<feBlend mode="normal" in="SourceGraphic" in2="effect1_backgroundBlur" result="shape"/>
</filter>
<filter id="filter5_b" x="37" y="-13" width="203" height="633" filterUnits="userSpaceOnUse" color-interpolation-filters="sRGB">
<feFlood flood-opacity="0" result="BackgroundImageFix"/>
<feGaussianBlur in="BackgroundImage" stdDeviation="10"/>
<feComposite in2="SourceAlpha" operator="in" result="effect1_backgroundBlur"/>
<feBlend mode="normal" in="SourceGraphic" in2="effect1_backgroundBlur" result="shape"/>
</filter>
<filter id="filter6_d" x="93" y="22" width="107" height="537" filterUnits="userSpaceOnUse" color-interpolation-filters="sRGB">
<feFlood flood-opacity="0" result="BackgroundImageFix"/>
<feColorMatrix in="SourceAlpha" type="matrix" values="0 0 0 0 0 0 0 0 0 0 0 0 0 0 0 0 0 0 127 0"/>
<feMorphology radius="4" operator="erode" in="SourceAlpha" result="effect1_dropShadow"/>
<feOffset dx="3" dy="4"/>
<feGaussianBlur stdDeviation="10"/>
<feColorMatrix type="matrix" values="0 0 0 0 0.25098 0 0 0 0 0.34902 0 0 0 0 0.65098 0 0 0 0.3 0"/>
<feBlend mode="normal" in2="BackgroundImageFix" result="effect1_dropShadow"/>
<feBlend mode="normal" in="SourceGraphic" in2="effect1_dropShadow" result="shape"/>
</filter>
<clipPath id="clip0">
<rect width="18.4" height="16" fill="white" transform="translate(134 160)"/>
</clipPath>
<clipPath id="clip1">
<rect width="22" height="22" fill="white" transform="translate(133 318)"/>
</clipPath>
<clipPath id="clip2">
<rect width="17.3333" height="14" fill="white" transform="translate(135 112)"/>
</clipPath>
</defs>
</svg>
