<svg width="617" height="422" viewBox="0 0 617 422" fill="none" xmlns="http://www.w3.org/2000/svg">
<g filter="url(#filter0_b)">
<rect x="414" y="290" width="96" height="89" rx="44.5" fill="#001C43"/>
</g>
<g filter="url(#filter1_b)">
<rect width="89" height="88" rx="44" fill="#001C43"/>
</g>
<g filter="url(#filter2_b)">
<rect x="1" y="22" width="583" height="400" rx="68" fill="white" fill-opacity="0.35"/>
<rect x="1.5" y="22.5" width="582" height="399" rx="67.5" stroke="white"/>
</g>
<rect x="45.5" y="61.5" width="495" height="305" rx="70.5" fill="#F1F3F9" stroke="white"/>
<path d="M133.772 190V166.528H148.46V170.992H139.064V175.708H147.056V180.136H139.064V185.536H148.82V190H133.772ZM153.063 190V172.144H157.383L157.743 174.412H157.887C158.655 173.692 159.495 173.068 160.407 172.54C161.319 171.988 162.387 171.712 163.611 171.712C165.555 171.712 166.959 172.348 167.823 173.62C168.711 174.892 169.155 176.656 169.155 178.912V190H163.863V179.596C163.863 178.3 163.683 177.412 163.323 176.932C162.987 176.452 162.435 176.212 161.667 176.212C160.995 176.212 160.419 176.368 159.939 176.68C159.459 176.968 158.931 177.388 158.355 177.94V190H153.063ZM180.54 190.432C179.436 190.432 178.488 190.264 177.696 189.928C176.928 189.592 176.292 189.124 175.788 188.524C175.308 187.924 174.948 187.204 174.708 186.364C174.492 185.5 174.384 184.552 174.384 183.52V176.284H171.936V172.36L174.672 172.144L175.284 167.392H179.676V172.144H183.96V176.284H179.676V183.448C179.676 184.456 179.88 185.188 180.288 185.644C180.72 186.076 181.284 186.292 181.98 186.292C182.268 186.292 182.556 186.256 182.844 186.184C183.156 186.112 183.432 186.028 183.672 185.932L184.5 189.784C184.02 189.928 183.456 190.072 182.808 190.216C182.16 190.36 181.404 190.432 180.54 190.432ZM194.805 190.432C193.533 190.432 192.345 190.228 191.241 189.82C190.137 189.388 189.177 188.776 188.361 187.984C187.545 187.168 186.909 186.184 186.453 185.032C185.997 183.88 185.769 182.56 185.769 181.072C185.769 179.632 186.009 178.336 186.489 177.184C186.969 176.008 187.593 175.024 188.361 174.232C189.153 173.416 190.053 172.792 191.061 172.36C192.069 171.928 193.113 171.712 194.193 171.712C195.465 171.712 196.569 171.928 197.505 172.36C198.465 172.792 199.257 173.392 199.881 174.16C200.529 174.928 201.009 175.84 201.321 176.896C201.633 177.928 201.789 179.056 201.789 180.28C201.789 180.76 201.765 181.216 201.717 181.648C201.669 182.08 201.621 182.404 201.573 182.62H190.881C191.121 183.916 191.649 184.876 192.465 185.5C193.305 186.1 194.325 186.4 195.525 186.4C196.797 186.4 198.081 186.004 199.377 185.212L201.141 188.416C200.229 189.04 199.209 189.532 198.081 189.892C196.977 190.252 195.885 190.432 194.805 190.432ZM190.845 179.128H197.289C197.289 178.12 197.061 177.304 196.605 176.68C196.149 176.056 195.381 175.744 194.301 175.744C193.461 175.744 192.717 176.02 192.069 176.572C191.445 177.124 191.037 177.976 190.845 179.128ZM205.445 190V172.144H209.765L210.125 175.276H210.269C210.917 174.052 211.697 173.152 212.609 172.576C213.521 172 214.433 171.712 215.345 171.712C215.849 171.712 216.257 171.748 216.569 171.82C216.905 171.868 217.205 171.952 217.469 172.072L216.605 176.644C216.269 176.548 215.957 176.476 215.669 176.428C215.381 176.38 215.045 176.356 214.661 176.356C213.989 176.356 213.281 176.596 212.537 177.076C211.817 177.556 211.217 178.408 210.737 179.632V190H205.445ZM236.68 190.432C233.632 190.432 231.304 189.532 229.696 187.732C228.088 185.932 227.284 183.064 227.284 179.128V166.528H232.612V179.668C232.612 181.972 232.96 183.58 233.656 184.492C234.352 185.404 235.36 185.86 236.68 185.86C238 185.86 239.02 185.404 239.74 184.492C240.46 183.58 240.82 181.972 240.82 179.668V166.528H245.932V179.128C245.932 183.064 245.14 185.932 243.556 187.732C241.996 189.532 239.704 190.432 236.68 190.432ZM251.37 190V166.528H259.83C261.078 166.528 262.242 166.648 263.322 166.888C264.426 167.128 265.386 167.536 266.202 168.112C267.018 168.664 267.666 169.408 268.146 170.344C268.626 171.28 268.866 172.444 268.866 173.836C268.866 175.564 268.482 176.992 267.714 178.12C266.97 179.224 265.962 180.052 264.69 180.604L270.018 190H264.078L259.578 181.54H256.662V190H251.37ZM256.662 177.328H259.398C260.79 177.328 261.846 177.04 262.566 176.464C263.31 175.864 263.682 174.988 263.682 173.836C263.682 172.684 263.31 171.88 262.566 171.424C261.846 170.968 260.79 170.74 259.398 170.74H256.662V177.328ZM273.448 190V166.528H278.74V185.536H288.028V190H273.448ZM298.856 190V164.764H304.148V170.956L303.896 174.16C304.568 173.56 305.348 173.008 306.236 172.504C307.124 171.976 308.18 171.712 309.404 171.712C311.348 171.712 312.752 172.348 313.616 173.62C314.504 174.892 314.948 176.656 314.948 178.912V190H309.656V179.596C309.656 178.3 309.476 177.412 309.116 176.932C308.78 176.452 308.228 176.212 307.46 176.212C306.788 176.212 306.212 176.368 305.732 176.68C305.252 176.968 304.724 177.388 304.148 177.94V190H298.856ZM327.414 190.432C326.142 190.432 324.954 190.228 323.85 189.82C322.746 189.388 321.786 188.776 320.97 187.984C320.154 187.168 319.518 186.184 319.062 185.032C318.606 183.88 318.378 182.56 318.378 181.072C318.378 179.632 318.618 178.336 319.098 177.184C319.578 176.008 320.202 175.024 320.97 174.232C321.762 173.416 322.662 172.792 323.67 172.36C324.678 171.928 325.722 171.712 326.802 171.712C328.074 171.712 329.178 171.928 330.114 172.36C331.074 172.792 331.866 173.392 332.49 174.16C333.138 174.928 333.618 175.84 333.93 176.896C334.242 177.928 334.398 179.056 334.398 180.28C334.398 180.76 334.374 181.216 334.326 181.648C334.278 182.08 334.23 182.404 334.182 182.62H323.49C323.73 183.916 324.258 184.876 325.074 185.5C325.914 186.1 326.934 186.4 328.134 186.4C329.406 186.4 330.69 186.004 331.986 185.212L333.75 188.416C332.838 189.04 331.818 189.532 330.69 189.892C329.586 190.252 328.494 190.432 327.414 190.432ZM323.454 179.128H329.898C329.898 178.12 329.67 177.304 329.214 176.68C328.758 176.056 327.99 175.744 326.91 175.744C326.07 175.744 325.326 176.02 324.678 176.572C324.054 177.124 323.646 177.976 323.454 179.128ZM338.055 190V172.144H342.375L342.735 175.276H342.879C343.527 174.052 344.307 173.152 345.219 172.576C346.131 172 347.043 171.712 347.955 171.712C348.459 171.712 348.867 171.748 349.179 171.82C349.515 171.868 349.815 171.952 350.079 172.072L349.215 176.644C348.879 176.548 348.567 176.476 348.279 176.428C347.991 176.38 347.655 176.356 347.271 176.356C346.599 176.356 345.891 176.596 345.147 177.076C344.427 177.556 343.827 178.408 343.347 179.632V190H338.055ZM360.039 190.432C358.767 190.432 357.579 190.228 356.475 189.82C355.371 189.388 354.411 188.776 353.595 187.984C352.779 187.168 352.143 186.184 351.687 185.032C351.231 183.88 351.003 182.56 351.003 181.072C351.003 179.632 351.243 178.336 351.723 177.184C352.203 176.008 352.827 175.024 353.595 174.232C354.387 173.416 355.287 172.792 356.295 172.36C357.303 171.928 358.347 171.712 359.427 171.712C360.699 171.712 361.803 171.928 362.739 172.36C363.699 172.792 364.491 173.392 365.115 174.16C365.763 174.928 366.243 175.84 366.555 176.896C366.867 177.928 367.023 179.056 367.023 180.28C367.023 180.76 366.999 181.216 366.951 181.648C366.903 182.08 366.855 182.404 366.807 182.62H356.115C356.355 183.916 356.883 184.876 357.699 185.5C358.539 186.1 359.559 186.4 360.759 186.4C362.031 186.4 363.315 186.004 364.611 185.212L366.375 188.416C365.463 189.04 364.443 189.532 363.315 189.892C362.211 190.252 361.119 190.432 360.039 190.432ZM356.079 179.128H362.523C362.523 178.12 362.295 177.304 361.839 176.68C361.383 176.056 360.615 175.744 359.535 175.744C358.695 175.744 357.951 176.02 357.303 176.572C356.679 177.124 356.271 177.976 356.079 179.128Z" fill="#344FA1" fill-opacity="0.6"/>
<rect x="131.5" y="302.5" width="298" height="27.7554" rx="13.8777" fill="white" fill-opacity="0.4" stroke="#3F72AF" stroke-dasharray="5 5"/>
<path d="M183.768 320.048C183.42 320.471 182.938 320.683 182.323 320.683C181.756 320.683 181.323 320.52 181.024 320.194C180.728 319.869 180.576 319.392 180.57 318.764V315.302H181.981V318.715C181.981 319.265 182.232 319.54 182.733 319.54C183.211 319.54 183.54 319.374 183.719 319.042V315.302H185.135V320.585H183.807L183.768 320.048ZM190.956 317.992C190.956 318.806 190.77 319.459 190.399 319.95C190.031 320.438 189.533 320.683 188.905 320.683C188.371 320.683 187.94 320.497 187.611 320.126V322.616H186.2V315.302H187.508L187.557 315.819C187.899 315.409 188.345 315.204 188.895 315.204C189.546 315.204 190.052 315.445 190.414 315.927C190.775 316.409 190.956 317.073 190.956 317.919V317.992ZM189.544 317.89C189.544 317.398 189.457 317.019 189.281 316.752C189.108 316.485 188.856 316.352 188.524 316.352C188.081 316.352 187.777 316.521 187.611 316.859V319.022C187.783 319.371 188.091 319.545 188.534 319.545C189.208 319.545 189.544 318.993 189.544 317.89ZM193.324 320.585H191.908V313.085H193.324V320.585ZM194.271 317.895C194.271 317.37 194.372 316.903 194.574 316.493C194.776 316.083 195.065 315.766 195.443 315.541C195.824 315.316 196.265 315.204 196.766 315.204C197.479 315.204 198.06 315.422 198.509 315.858C198.962 316.295 199.214 316.887 199.266 317.636L199.276 317.997C199.276 318.808 199.05 319.459 198.597 319.95C198.145 320.438 197.538 320.683 196.776 320.683C196.014 320.683 195.405 320.438 194.95 319.95C194.497 319.462 194.271 318.798 194.271 317.958V317.895ZM195.682 317.997C195.682 318.498 195.777 318.882 195.965 319.149C196.154 319.413 196.424 319.545 196.776 319.545C197.118 319.545 197.385 319.415 197.577 319.154C197.769 318.891 197.865 318.471 197.865 317.895C197.865 317.403 197.769 317.022 197.577 316.752C197.385 316.482 197.114 316.347 196.766 316.347C196.421 316.347 196.154 316.482 195.965 316.752C195.777 317.019 195.682 317.434 195.682 317.997ZM203.207 320.585C203.141 320.458 203.094 320.3 203.065 320.111C202.723 320.492 202.279 320.683 201.732 320.683C201.214 320.683 200.785 320.533 200.443 320.233C200.104 319.934 199.935 319.556 199.935 319.101C199.935 318.541 200.142 318.111 200.555 317.812C200.972 317.512 201.572 317.361 202.357 317.357H203.006V317.055C203.006 316.811 202.943 316.615 202.816 316.469C202.692 316.322 202.495 316.249 202.225 316.249C201.987 316.249 201.8 316.306 201.664 316.42C201.53 316.534 201.463 316.69 201.463 316.889H200.052C200.052 316.583 200.147 316.299 200.335 316.039C200.524 315.779 200.791 315.575 201.136 315.429C201.481 315.279 201.869 315.204 202.298 315.204C202.949 315.204 203.465 315.368 203.846 315.697C204.23 316.023 204.422 316.482 204.422 317.074V319.364C204.426 319.866 204.496 320.245 204.632 320.502V320.585H203.207ZM202.04 319.604C202.248 319.604 202.44 319.558 202.616 319.467C202.792 319.372 202.922 319.247 203.006 319.091V318.183H202.479C201.773 318.183 201.397 318.427 201.351 318.915L201.346 318.998C201.346 319.174 201.408 319.319 201.532 319.433C201.655 319.547 201.825 319.604 202.04 319.604ZM205.287 317.904C205.287 317.081 205.471 316.425 205.838 315.937C206.209 315.448 206.716 315.204 207.357 315.204C207.871 315.204 208.296 315.396 208.631 315.78V313.085H210.047V320.585H208.773L208.705 320.023C208.353 320.463 207.901 320.683 207.347 320.683C206.725 320.683 206.226 320.438 205.848 319.95C205.474 319.459 205.287 318.777 205.287 317.904ZM206.698 318.007C206.698 318.502 206.784 318.881 206.957 319.145C207.129 319.408 207.38 319.54 207.708 319.54C208.145 319.54 208.452 319.356 208.631 318.988V316.903C208.456 316.535 208.151 316.352 207.718 316.352C207.038 316.352 206.698 316.903 206.698 318.007ZM216.693 320.585C216.628 320.458 216.581 320.3 216.551 320.111C216.209 320.492 215.765 320.683 215.218 320.683C214.701 320.683 214.271 320.533 213.929 320.233C213.591 319.934 213.421 319.556 213.421 319.101C213.421 318.541 213.628 318.111 214.042 317.812C214.458 317.512 215.059 317.361 215.843 317.357H216.493V317.055C216.493 316.811 216.429 316.615 216.302 316.469C216.179 316.322 215.982 316.249 215.711 316.249C215.474 316.249 215.287 316.306 215.15 316.42C215.016 316.534 214.95 316.69 214.95 316.889H213.539C213.539 316.583 213.633 316.299 213.822 316.039C214.011 315.779 214.278 315.575 214.623 315.429C214.968 315.279 215.355 315.204 215.785 315.204C216.436 315.204 216.952 315.368 217.333 315.697C217.717 316.023 217.909 316.482 217.909 317.074V319.364C217.912 319.866 217.982 320.245 218.119 320.502V320.585H216.693ZM215.526 319.604C215.734 319.604 215.926 319.558 216.102 319.467C216.278 319.372 216.408 319.247 216.493 319.091V318.183H215.965C215.259 318.183 214.883 318.427 214.837 318.915L214.833 318.998C214.833 319.174 214.894 319.319 215.018 319.433C215.142 319.547 215.311 319.604 215.526 319.604ZM220.292 315.302L220.335 315.912C220.713 315.44 221.219 315.204 221.854 315.204C222.414 315.204 222.831 315.368 223.104 315.697C223.377 316.026 223.517 316.518 223.524 317.172V320.585H222.113V317.206C222.113 316.907 222.048 316.69 221.917 316.557C221.787 316.42 221.571 316.352 221.268 316.352C220.871 316.352 220.573 316.521 220.375 316.859V320.585H218.963V315.302H220.292ZM226.571 318.588L227.547 315.302H229.061L226.937 321.405L226.82 321.684C226.504 322.374 225.983 322.719 225.257 322.719C225.052 322.719 224.844 322.688 224.632 322.626V321.557L224.847 321.562C225.114 321.562 225.313 321.521 225.443 321.439C225.576 321.358 225.681 321.223 225.755 321.034L225.921 320.6L224.071 315.302H225.589L226.571 318.588ZM232.45 320.585V316.337H231.664V315.302H232.45V315.058C232.456 314.394 232.66 313.882 233.06 313.524C233.464 313.163 234.032 312.982 234.764 312.982C235.204 312.982 235.737 313.078 236.366 313.271L236.161 314.438C235.842 314.343 235.594 314.283 235.418 314.257C235.243 314.228 235.054 314.213 234.852 314.213C234.194 314.213 233.866 314.504 233.866 315.087V315.302H234.906V316.337H233.866V320.585H232.45ZM237.025 320.585H235.609V315.302H237.025V320.585ZM239.681 320.585H238.265V313.085H239.681V320.585ZM243.28 320.683C242.505 320.683 241.874 320.445 241.385 319.97C240.9 319.494 240.658 318.861 240.658 318.07V317.934C240.658 317.403 240.76 316.929 240.965 316.513C241.17 316.093 241.46 315.771 241.834 315.546C242.212 315.318 242.642 315.204 243.124 315.204C243.846 315.204 244.414 315.432 244.828 315.888C245.244 316.343 245.453 316.99 245.453 317.826V318.402H242.088C242.134 318.747 242.271 319.024 242.499 319.232C242.73 319.441 243.021 319.545 243.373 319.545C243.916 319.545 244.341 319.348 244.647 318.954L245.34 319.73C245.129 320.03 244.842 320.264 244.481 320.434C244.12 320.6 243.719 320.683 243.28 320.683ZM243.119 316.347C242.839 316.347 242.611 316.441 242.435 316.63C242.263 316.819 242.152 317.089 242.103 317.44H244.066V317.328C244.059 317.016 243.975 316.775 243.812 316.605C243.649 316.433 243.418 316.347 243.119 316.347ZM250.438 314.003V315.302H251.341V316.337H250.438V318.974C250.438 319.169 250.475 319.309 250.55 319.394C250.625 319.478 250.768 319.521 250.98 319.521C251.136 319.521 251.275 319.509 251.395 319.486V320.556C251.118 320.64 250.833 320.683 250.541 320.683C249.551 320.683 249.046 320.183 249.027 319.184V316.337H248.255V315.302H249.027V314.003H250.438ZM254.1 318.588L255.077 315.302H256.59L254.466 321.405L254.349 321.684C254.033 322.374 253.513 322.719 252.787 322.719C252.582 322.719 252.373 322.688 252.162 322.626V321.557L252.376 321.562C252.643 321.562 252.842 321.521 252.972 321.439C253.106 321.358 253.21 321.223 253.285 321.034L253.451 320.6L251.6 315.302H253.119L254.1 318.588ZM261.903 317.992C261.903 318.806 261.717 319.459 261.346 319.95C260.978 320.438 260.48 320.683 259.852 320.683C259.318 320.683 258.887 320.497 258.558 320.126V322.616H257.147V315.302H258.456L258.504 315.819C258.846 315.409 259.292 315.204 259.842 315.204C260.493 315.204 261 315.445 261.361 315.927C261.722 316.409 261.903 317.073 261.903 317.919V317.992ZM260.492 317.89C260.492 317.398 260.404 317.019 260.228 316.752C260.056 316.485 259.803 316.352 259.471 316.352C259.028 316.352 258.724 316.521 258.558 316.859V319.022C258.731 319.371 259.038 319.545 259.481 319.545C260.155 319.545 260.492 318.993 260.492 317.89ZM265.213 320.683C264.439 320.683 263.807 320.445 263.319 319.97C262.834 319.494 262.591 318.861 262.591 318.07V317.934C262.591 317.403 262.694 316.929 262.899 316.513C263.104 316.093 263.394 315.771 263.768 315.546C264.146 315.318 264.575 315.204 265.057 315.204C265.78 315.204 266.348 315.432 266.761 315.888C267.178 316.343 267.386 316.99 267.386 317.826V318.402H264.022C264.068 318.747 264.204 319.024 264.432 319.232C264.663 319.441 264.955 319.545 265.306 319.545C265.85 319.545 266.275 319.348 266.581 318.954L267.274 319.73C267.062 320.03 266.776 320.264 266.415 320.434C266.053 320.6 265.653 320.683 265.213 320.683ZM265.052 316.347C264.772 316.347 264.544 316.441 264.369 316.63C264.196 316.819 264.085 317.089 264.037 317.44H266V317.328C265.993 317.016 265.908 316.775 265.746 316.605C265.583 316.433 265.352 316.347 265.052 316.347Z" fill="#001C43"/>
<path d="M273.236 317.694C273.236 316.949 273.335 316.239 273.534 315.565C273.732 314.892 274.025 314.296 274.413 313.778C274.8 313.257 275.22 312.896 275.672 312.694L275.946 313.456C275.471 313.808 275.099 314.351 274.833 315.087C274.566 315.823 274.432 316.682 274.432 317.665V317.816C274.432 318.803 274.564 319.665 274.828 320.404C275.091 321.143 275.464 321.695 275.946 322.06L275.672 322.807C275.23 322.608 274.816 322.257 274.432 321.752C274.051 321.251 273.76 320.671 273.558 320.014C273.356 319.356 273.249 318.669 273.236 317.953V317.694ZM279.251 319.892C279.251 319.667 279.326 319.485 279.476 319.345C279.629 319.205 279.819 319.135 280.047 319.135C280.278 319.135 280.469 319.205 280.619 319.345C280.772 319.485 280.848 319.667 280.848 319.892C280.848 320.113 280.773 320.294 280.624 320.434C280.474 320.57 280.282 320.639 280.047 320.639C279.816 320.639 279.626 320.57 279.476 320.434C279.326 320.294 279.251 320.113 279.251 319.892ZM283.583 315.302V320.873C283.583 321.456 283.428 321.908 283.119 322.23C282.809 322.556 282.363 322.719 281.781 322.719C281.537 322.719 281.304 322.691 281.083 322.636V321.518C281.252 321.547 281.4 321.562 281.527 321.562C281.953 321.562 282.167 321.335 282.167 320.883V315.302H283.583ZM282.054 313.935C282.054 313.723 282.124 313.549 282.264 313.412C282.407 313.275 282.601 313.207 282.845 313.207C283.089 313.207 283.281 313.275 283.421 313.412C283.565 313.549 283.636 313.723 283.636 313.935C283.636 314.149 283.563 314.325 283.417 314.462C283.273 314.599 283.083 314.667 282.845 314.667C282.608 314.667 282.416 314.599 282.269 314.462C282.126 314.325 282.054 314.149 282.054 313.935ZM289.442 317.992C289.442 318.806 289.256 319.459 288.885 319.95C288.517 320.438 288.019 320.683 287.391 320.683C286.857 320.683 286.426 320.497 286.097 320.126V322.616H284.686V315.302H285.995L286.043 315.819C286.385 315.409 286.831 315.204 287.381 315.204C288.032 315.204 288.539 315.445 288.9 315.927C289.261 316.409 289.442 317.073 289.442 317.919V317.992ZM288.031 317.89C288.031 317.398 287.943 317.019 287.767 316.752C287.595 316.485 287.342 316.352 287.01 316.352C286.568 316.352 286.263 316.521 286.097 316.859V319.022C286.27 319.371 286.577 319.545 287.02 319.545C287.694 319.545 288.031 318.993 288.031 317.89ZM290.116 317.904C290.116 317.094 290.308 316.441 290.692 315.946C291.079 315.451 291.6 315.204 292.254 315.204C292.834 315.204 293.285 315.403 293.607 315.8L293.666 315.302H294.945V320.409C294.945 320.871 294.839 321.273 294.627 321.615C294.419 321.957 294.125 322.217 293.744 322.396C293.363 322.576 292.917 322.665 292.406 322.665C292.018 322.665 291.641 322.587 291.273 322.431C290.905 322.278 290.627 322.079 290.438 321.835L291.063 320.976C291.415 321.369 291.841 321.566 292.342 321.566C292.717 321.566 293.008 321.465 293.216 321.264C293.425 321.065 293.529 320.782 293.529 320.414V320.131C293.203 320.499 292.775 320.683 292.245 320.683C291.61 320.683 291.096 320.435 290.702 319.94C290.311 319.442 290.116 318.783 290.116 317.963V317.904ZM291.527 318.007C291.527 318.485 291.623 318.861 291.815 319.135C292.007 319.405 292.271 319.54 292.606 319.54C293.036 319.54 293.343 319.379 293.529 319.057V316.835C293.34 316.513 293.036 316.352 292.616 316.352C292.277 316.352 292.01 316.49 291.815 316.767C291.623 317.043 291.527 317.457 291.527 318.007ZM296.4 322.367L295.663 321.981L295.838 321.664C296.056 321.267 296.169 320.871 296.175 320.478V319.384H297.367L297.362 320.36C297.359 320.722 297.267 321.086 297.088 321.454C296.909 321.822 296.68 322.126 296.4 322.367ZM301.039 319.892C301.039 319.667 301.113 319.485 301.263 319.345C301.416 319.205 301.607 319.135 301.834 319.135C302.066 319.135 302.256 319.205 302.406 319.345C302.559 319.485 302.635 319.667 302.635 319.892C302.635 320.113 302.56 320.294 302.411 320.434C302.261 320.57 302.069 320.639 301.834 320.639C301.603 320.639 301.413 320.57 301.263 320.434C301.113 320.294 301.039 320.113 301.039 319.892ZM308.631 317.992C308.631 318.806 308.446 319.459 308.075 319.95C307.707 320.438 307.209 320.683 306.581 320.683C306.047 320.683 305.615 320.497 305.287 320.126V322.616H303.875V315.302H305.184L305.233 315.819C305.575 315.409 306.021 315.204 306.571 315.204C307.222 315.204 307.728 315.445 308.089 315.927C308.451 316.409 308.631 317.073 308.631 317.919V317.992ZM307.22 317.89C307.22 317.398 307.132 317.019 306.957 316.752C306.784 316.485 306.532 316.352 306.2 316.352C305.757 316.352 305.453 316.521 305.287 316.859V319.022C305.459 319.371 305.767 319.545 306.209 319.545C306.883 319.545 307.22 318.993 307.22 317.89ZM309.291 317.904C309.291 317.081 309.474 316.425 309.842 315.937C310.213 315.448 310.72 315.204 311.361 315.204C311.875 315.204 312.3 315.396 312.635 315.78V313.085H314.051V320.585H312.777L312.708 320.023C312.357 320.463 311.904 320.683 311.351 320.683C310.729 320.683 310.23 320.438 309.852 319.95C309.478 319.459 309.291 318.777 309.291 317.904ZM310.702 318.007C310.702 318.502 310.788 318.881 310.96 319.145C311.133 319.408 311.384 319.54 311.712 319.54C312.149 319.54 312.456 319.356 312.635 318.988V316.903C312.459 316.535 312.155 316.352 311.722 316.352C311.042 316.352 310.702 316.903 310.702 318.007ZM315.531 320.585V316.337H314.745V315.302H315.531V314.853C315.531 314.26 315.7 313.801 316.039 313.476C316.38 313.147 316.857 312.982 317.469 312.982C317.665 312.982 317.904 313.015 318.187 313.08L318.172 314.174C318.055 314.145 317.912 314.13 317.743 314.13C317.212 314.13 316.947 314.379 316.947 314.877V315.302H317.997V316.337H316.947V320.585H315.531ZM321.585 322.367L320.848 321.981L321.024 321.664C321.242 321.267 321.354 320.871 321.361 320.478V319.384H322.552L322.547 320.36C322.544 320.722 322.453 321.086 322.274 321.454C322.095 321.822 321.865 322.126 321.585 322.367ZM323.734 319.892C323.734 319.667 323.809 319.485 323.958 319.345C324.111 319.205 324.302 319.135 324.53 319.135C324.761 319.135 324.951 319.205 325.101 319.345C325.254 319.485 325.331 319.667 325.331 319.892C325.331 320.113 325.256 320.294 325.106 320.434C324.956 320.57 324.764 320.639 324.53 320.639C324.299 320.639 324.108 320.57 323.958 320.434C323.809 320.294 323.734 320.113 323.734 319.892ZM327.894 315.302L327.938 315.893C328.312 315.434 328.819 315.204 329.457 315.204C330.137 315.204 330.604 315.473 330.858 316.01C331.229 315.473 331.758 315.204 332.445 315.204C333.018 315.204 333.444 315.372 333.724 315.707C334.004 316.039 334.144 316.54 334.144 317.211V320.585H332.728V317.216C332.728 316.916 332.669 316.698 332.552 316.562C332.435 316.422 332.228 316.352 331.932 316.352C331.509 316.352 331.216 316.553 331.053 316.957L331.058 320.585H329.647V317.221C329.647 316.915 329.587 316.693 329.466 316.557C329.346 316.42 329.141 316.352 328.851 316.352C328.451 316.352 328.161 316.518 327.982 316.85V320.585H326.571V315.302H327.894ZM339.989 317.992C339.989 318.806 339.803 319.459 339.432 319.95C339.064 320.438 338.566 320.683 337.938 320.683C337.404 320.683 336.973 320.497 336.644 320.126V322.616H335.233V315.302H336.542L336.59 315.819C336.932 315.409 337.378 315.204 337.928 315.204C338.579 315.204 339.085 315.445 339.447 315.927C339.808 316.409 339.989 317.073 339.989 317.919V317.992ZM338.578 317.89C338.578 317.398 338.49 317.019 338.314 316.752C338.141 316.485 337.889 316.352 337.557 316.352C337.114 316.352 336.81 316.521 336.644 316.859V319.022C336.817 319.371 337.124 319.545 337.567 319.545C338.241 319.545 338.578 318.993 338.578 317.89ZM342.245 316.405H342.997C343.355 316.405 343.62 316.316 343.792 316.137C343.965 315.958 344.051 315.72 344.051 315.424C344.051 315.137 343.965 314.914 343.792 314.755C343.623 314.595 343.389 314.516 343.089 314.516C342.819 314.516 342.593 314.59 342.411 314.74C342.228 314.887 342.137 315.079 342.137 315.316H340.726C340.726 314.945 340.825 314.613 341.024 314.32C341.226 314.024 341.506 313.793 341.864 313.627C342.225 313.461 342.622 313.378 343.055 313.378C343.807 313.378 344.396 313.559 344.823 313.92C345.249 314.278 345.462 314.773 345.462 315.404C345.462 315.73 345.363 316.029 345.165 316.303C344.966 316.576 344.706 316.786 344.383 316.933C344.784 317.076 345.082 317.291 345.277 317.577C345.475 317.864 345.575 318.202 345.575 318.593C345.575 319.224 345.344 319.73 344.881 320.111C344.422 320.492 343.814 320.683 343.055 320.683C342.346 320.683 341.764 320.495 341.312 320.121C340.863 319.747 340.638 319.252 340.638 318.637H342.049C342.049 318.904 342.149 319.122 342.347 319.291C342.549 319.46 342.796 319.545 343.089 319.545C343.425 319.545 343.687 319.457 343.875 319.281C344.068 319.102 344.164 318.866 344.164 318.573C344.164 317.864 343.773 317.509 342.992 317.509H342.245V316.405ZM349.466 322.367L348.729 321.981L348.905 321.664C349.123 321.267 349.235 320.871 349.242 320.478V319.384H350.433L350.428 320.36C350.425 320.722 350.334 321.086 350.155 321.454C349.976 321.822 349.746 322.126 349.466 322.367ZM354.105 319.892C354.105 319.667 354.18 319.485 354.33 319.345C354.483 319.205 354.673 319.135 354.901 319.135C355.132 319.135 355.322 319.205 355.472 319.345C355.625 319.485 355.702 319.667 355.702 319.892C355.702 320.113 355.627 320.294 355.477 320.434C355.327 320.57 355.135 320.639 354.901 320.639C354.67 320.639 354.479 320.57 354.33 320.434C354.18 320.294 354.105 320.113 354.105 319.892ZM356.722 317.904C356.722 317.081 356.906 316.425 357.274 315.937C357.645 315.448 358.151 315.204 358.792 315.204C359.307 315.204 359.732 315.396 360.067 315.78V313.085H361.483V320.585H360.208L360.14 320.023C359.789 320.463 359.336 320.683 358.783 320.683C358.161 320.683 357.661 320.438 357.284 319.95C356.909 319.459 356.722 318.777 356.722 317.904ZM358.133 318.007C358.133 318.502 358.22 318.881 358.392 319.145C358.565 319.408 358.815 319.54 359.144 319.54C359.58 319.54 359.888 319.356 360.067 318.988V316.903C359.891 316.535 359.587 316.352 359.154 316.352C358.473 316.352 358.133 316.903 358.133 318.007ZM362.357 317.895C362.357 317.37 362.458 316.903 362.66 316.493C362.861 316.083 363.151 315.766 363.529 315.541C363.91 315.316 364.351 315.204 364.852 315.204C365.565 315.204 366.146 315.422 366.595 315.858C367.048 316.295 367.3 316.887 367.352 317.636L367.362 317.997C367.362 318.808 367.136 319.459 366.683 319.95C366.231 320.438 365.624 320.683 364.862 320.683C364.1 320.683 363.491 320.438 363.036 319.95C362.583 319.462 362.357 318.798 362.357 317.958V317.895ZM363.768 317.997C363.768 318.498 363.862 318.882 364.051 319.149C364.24 319.413 364.51 319.545 364.862 319.545C365.204 319.545 365.471 319.415 365.663 319.154C365.855 318.891 365.951 318.471 365.951 317.895C365.951 317.403 365.855 317.022 365.663 316.752C365.471 316.482 365.2 316.347 364.852 316.347C364.507 316.347 364.24 316.482 364.051 316.752C363.862 317.019 363.768 317.434 363.768 317.997ZM370.428 319.545C370.689 319.545 370.9 319.473 371.063 319.33C371.226 319.187 371.31 318.996 371.317 318.759H372.64C372.637 319.117 372.539 319.446 372.347 319.745C372.155 320.041 371.891 320.272 371.556 320.438C371.224 320.601 370.856 320.683 370.453 320.683C369.697 320.683 369.102 320.443 368.666 319.965C368.229 319.483 368.011 318.819 368.011 317.973V317.88C368.011 317.066 368.228 316.417 368.661 315.932C369.094 315.447 369.688 315.204 370.443 315.204C371.104 315.204 371.633 315.393 372.03 315.771C372.43 316.145 372.634 316.645 372.64 317.27H371.317C371.31 316.996 371.226 316.775 371.063 316.605C370.9 316.433 370.685 316.347 370.418 316.347C370.09 316.347 369.841 316.467 369.671 316.708C369.505 316.946 369.422 317.333 369.422 317.87V318.017C369.422 318.56 369.505 318.951 369.671 319.188C369.837 319.426 370.09 319.545 370.428 319.545ZM375.458 316.879L376.346 315.302H377.855L376.351 317.89L377.918 320.585H376.405L375.462 318.925L374.525 320.585H373.006L374.574 317.89L373.075 315.302H374.588L375.458 316.879ZM381.39 322.367L380.653 321.981L380.829 321.664C381.047 321.267 381.159 320.871 381.166 320.478V319.384H382.357L382.352 320.36C382.349 320.722 382.258 321.086 382.079 321.454C381.9 321.822 381.67 322.126 381.39 322.367ZM386.029 319.892C386.029 319.667 386.104 319.485 386.253 319.345C386.406 319.205 386.597 319.135 386.825 319.135C387.056 319.135 387.246 319.205 387.396 319.345C387.549 319.485 387.625 319.667 387.625 319.892C387.625 320.113 387.551 320.294 387.401 320.434C387.251 320.57 387.059 320.639 386.825 320.639C386.594 320.639 386.403 320.57 386.253 320.434C386.104 320.294 386.029 320.113 386.029 319.892ZM393.622 317.992C393.622 318.806 393.436 319.459 393.065 319.95C392.697 320.438 392.199 320.683 391.571 320.683C391.037 320.683 390.606 320.497 390.277 320.126V322.616H388.866V315.302H390.174L390.223 315.819C390.565 315.409 391.011 315.204 391.561 315.204C392.212 315.204 392.718 315.445 393.08 315.927C393.441 316.409 393.622 317.073 393.622 317.919V317.992ZM392.21 317.89C392.21 317.398 392.123 317.019 391.947 316.752C391.774 316.485 391.522 316.352 391.19 316.352C390.747 316.352 390.443 316.521 390.277 316.859V319.022C390.449 319.371 390.757 319.545 391.2 319.545C391.874 319.545 392.21 318.993 392.21 317.89ZM399.256 317.992C399.256 318.806 399.071 319.459 398.7 319.95C398.332 320.438 397.834 320.683 397.206 320.683C396.672 320.683 396.24 320.497 395.912 320.126V322.616H394.5V315.302H395.809L395.858 315.819C396.2 315.409 396.646 315.204 397.196 315.204C397.847 315.204 398.353 315.445 398.714 315.927C399.076 316.409 399.256 317.073 399.256 317.919V317.992ZM397.845 317.89C397.845 317.398 397.757 317.019 397.582 316.752C397.409 316.485 397.157 316.352 396.825 316.352C396.382 316.352 396.078 316.521 395.912 316.859V319.022C396.084 319.371 396.392 319.545 396.834 319.545C397.508 319.545 397.845 318.993 397.845 317.89ZM401.825 314.003V315.302H402.728V316.337H401.825V318.974C401.825 319.169 401.862 319.309 401.937 319.394C402.012 319.478 402.155 319.521 402.367 319.521C402.523 319.521 402.661 319.509 402.782 319.486V320.556C402.505 320.64 402.22 320.683 401.927 320.683C400.938 320.683 400.433 320.183 400.414 319.184V316.337H399.642V315.302H400.414V314.003H401.825ZM405.526 316.879L406.415 315.302H407.923L406.419 317.89L407.987 320.585H406.473L405.531 318.925L404.593 320.585H403.075L404.642 317.89L403.143 315.302H404.657L405.526 316.879ZM413.524 317.807C413.524 318.542 413.418 319.25 413.207 319.931C412.995 320.611 412.691 321.212 412.293 321.732C411.896 322.253 411.472 322.611 411.019 322.807L410.746 322.06C411.208 321.711 411.572 321.174 411.839 320.448C412.106 319.722 412.245 318.887 412.254 317.943V317.685C412.254 316.711 412.121 315.854 411.854 315.111C411.59 314.369 411.221 313.812 410.746 313.441L411.019 312.694C411.462 312.886 411.878 313.235 412.269 313.739C412.663 314.244 412.967 314.831 413.182 315.502C413.4 316.173 413.514 316.868 413.524 317.587V317.807Z" fill="#3F72AF" fill-opacity="0.73"/>
<path d="M162.474 321.969C162.474 322.41 162.831 322.768 163.272 322.768H174.635C175.076 322.768 175.433 322.41 175.433 321.969C175.433 321.528 175.076 321.17 174.635 321.17H163.272C162.831 321.17 162.474 321.528 162.474 321.969ZM164.517 313.017C163.813 313.625 164.243 314.78 165.173 314.78C165.727 314.78 166.176 315.23 166.176 315.784V317.573C166.176 318.677 167.072 319.573 168.176 319.573H169.731C170.835 319.573 171.731 318.677 171.731 317.573V315.784C171.731 315.23 172.18 314.78 172.734 314.78C173.664 314.78 174.094 313.625 173.39 313.017L170.26 310.316C169.509 309.669 168.398 309.669 167.647 310.316L164.517 313.017Z" fill="#001C43"/>
<defs>
<filter id="filter0_b" x="410" y="286" width="104" height="97" filterUnits="userSpaceOnUse" color-interpolation-filters="sRGB">
<feFlood flood-opacity="0" result="BackgroundImageFix"/>
<feGaussianBlur in="BackgroundImage" stdDeviation="2"/>
<feComposite in2="SourceAlpha" operator="in" result="effect1_backgroundBlur"/>
<feBlend mode="normal" in="SourceGraphic" in2="effect1_backgroundBlur" result="shape"/>
</filter>
<filter id="filter1_b" x="-4" y="-4" width="97" height="96" filterUnits="userSpaceOnUse" color-interpolation-filters="sRGB">
<feFlood flood-opacity="0" result="BackgroundImageFix"/>
<feGaussianBlur in="BackgroundImage" stdDeviation="2"/>
<feComposite in2="SourceAlpha" operator="in" result="effect1_backgroundBlur"/>
<feBlend mode="normal" in="SourceGraphic" in2="effect1_backgroundBlur" result="shape"/>
</filter>
<filter id="filter2_b" x="-19" y="2" width="623" height="440" filterUnits="userSpaceOnUse" color-interpolation-filters="sRGB">
<feFlood flood-opacity="0" result="BackgroundImageFix"/>
<feGaussianBlur in="BackgroundImage" stdDeviation="10"/>
<feComposite in2="SourceAlpha" operator="in" result="effect1_backgroundBlur"/>
<feBlend mode="normal" in="SourceGraphic" in2="effect1_backgroundBlur" result="shape"/>
</filter>
</defs>
</svg>
