<svg width="204" height="42" viewBox="0 0 204 42" fill="none" xmlns="http://www.w3.org/2000/svg">
<path d="M5.94 33C4.692 33 3.804 32.748 3.276 32.244C2.772 31.716 2.52 30.828 2.52 29.58V11.22C2.52 9.972 2.772 9.096 3.276 8.592C3.804 8.064 4.692 7.8 5.94 7.8H12.96C13.344 7.8 13.584 7.872 13.68 8.016C13.8 8.136 13.86 8.388 13.86 8.772V9.888H7.092C6.348 9.888 5.88 10.044 5.688 10.356C5.496 10.668 5.4 11.196 5.4 11.94V28.86C5.4 29.604 5.496 30.132 5.688 30.444C5.88 30.756 6.348 30.912 7.092 30.912H9.972C10.716 30.912 11.184 30.756 11.376 30.444C11.568 30.132 11.664 29.604 11.664 28.86V20.976H8.568V19.86C8.568 19.476 8.628 19.224 8.748 19.104C8.892 18.96 9.156 18.888 9.54 18.888H14.544V29.58C14.544 30.828 14.28 31.716 13.752 32.244C13.224 32.748 12.336 33 11.088 33H5.94ZM22.1712 20.976V30.912H29.0472V32.028C29.0472 32.412 28.9752 32.676 28.8312 32.82C28.7112 32.94 28.4592 33 28.0752 33H19.2912V8.772C19.2912 8.388 19.3512 8.136 19.4712 8.016C19.6152 7.872 19.8792 7.8 20.2632 7.8H29.0472V8.916C29.0472 9.3 28.9872 9.564 28.8672 9.708C28.7712 9.828 28.5312 9.888 28.1472 9.888H22.1712V18.888H27.9672V20.004C27.9672 20.388 27.9072 20.652 27.7872 20.796C27.6912 20.916 27.4512 20.976 27.0672 20.976H22.1712ZM45.0194 7.8V8.916C45.0194 9.3 44.9474 9.564 44.8034 9.708C44.6834 9.828 44.4314 9.888 44.0474 9.888H39.7274V32.028C39.7274 32.412 39.6554 32.676 39.5114 32.82C39.3914 32.94 39.1394 33 38.7554 33H36.8474V9.888H31.6274V8.772C31.6274 8.388 31.6874 8.136 31.8074 8.016C31.9514 7.872 32.2154 7.8 32.5994 7.8H45.0194Z" fill="#344FA1"/>
<path d="M101.52 11.22C101.52 9.972 101.772 9.096 102.276 8.592C102.804 8.064 103.692 7.8 104.94 7.8H110.484C111.732 7.8 112.608 8.064 113.112 8.592C113.64 9.096 113.904 9.972 113.904 11.22V29.58C113.904 30.828 113.64 31.716 113.112 32.244C112.608 32.748 111.732 33 110.484 33H108.468V33.288C108.468 34.128 108.576 34.68 108.792 34.944C109.008 35.208 109.464 35.34 110.16 35.34H111.708V36.456C111.708 36.84 111.648 37.092 111.528 37.212C111.432 37.356 111.192 37.428 110.808 37.428H109.44C108.408 37.428 107.64 37.164 107.136 36.636C106.632 36.108 106.38 35.232 106.38 34.008V33H104.94C103.692 33 102.804 32.748 102.276 32.244C101.772 31.716 101.52 30.828 101.52 29.58V11.22ZM104.4 28.86C104.4 29.604 104.496 30.132 104.688 30.444C104.88 30.756 105.348 30.912 106.092 30.912H109.332C110.076 30.912 110.544 30.756 110.736 30.444C110.928 30.132 111.024 29.604 111.024 28.86V11.94C111.024 11.196 110.928 10.668 110.736 10.356C110.544 10.044 110.076 9.888 109.332 9.888H106.092C105.348 9.888 104.88 10.044 104.688 10.356C104.496 10.668 104.4 11.196 104.4 11.94V28.86ZM126.302 18.888C127.046 18.888 127.514 18.732 127.706 18.42C127.898 18.108 127.994 17.58 127.994 16.836V11.94C127.994 11.196 127.898 10.668 127.706 10.356C127.514 10.044 127.046 9.888 126.302 9.888H121.91V32.028C121.91 32.412 121.838 32.676 121.694 32.82C121.574 32.94 121.322 33 120.938 33H119.03V8.772C119.03 8.388 119.09 8.136 119.21 8.016C119.354 7.872 119.618 7.8 120.002 7.8H127.454C128.702 7.8 129.578 8.064 130.082 8.592C130.61 9.096 130.874 9.972 130.874 11.22V17.556C130.874 18.684 130.67 19.512 130.262 20.04C129.854 20.544 129.158 20.844 128.174 20.94L131.81 33H129.974C129.59 33 129.302 32.94 129.11 32.82C128.942 32.676 128.798 32.412 128.678 32.028L125.33 20.976H124.25C123.866 20.976 123.614 20.916 123.494 20.796C123.398 20.652 123.35 20.388 123.35 20.004V18.888H126.302Z" fill="#344FA1"/>
<path d="M57 18.5714H68.5714V7H57V18.5714ZM60.8571 10.8571H64.7143V14.7143H60.8571V10.8571ZM72.4286 7V18.5714H84V7H72.4286ZM80.1429 14.7143H76.2857V10.8571H80.1429V14.7143ZM57 34H68.5714V22.4286H57V34ZM60.8571 26.2857H64.7143V30.1429H60.8571V26.2857ZM82.0714 22.4286H84V30.1429H78.2143V28.2143H76.2857V34H72.4286V22.4286H78.2143V24.3571H82.0714V22.4286ZM82.0714 32.0714H84V34H82.0714V32.0714ZM78.2143 32.0714H80.1429V34H78.2143V32.0714Z" fill="#344FA1"/>
<rect x="154" y="6" width="50" height="29.4118" rx="14.7059" fill="#344FA1"/>
<path d="M163.353 26.7061V14.9701H167.385C168.033 14.9701 168.639 15.0361 169.203 15.1681C169.767 15.2881 170.259 15.4981 170.679 15.7981C171.099 16.0861 171.429 16.4761 171.669 16.9681C171.921 17.4481 172.047 18.0421 172.047 18.7501C172.047 19.4341 171.921 20.0281 171.669 20.5321C171.429 21.0361 171.099 21.4501 170.679 21.7741C170.259 22.0981 169.773 22.3381 169.221 22.4941C168.669 22.6501 168.081 22.7281 167.457 22.7281H165.999V26.7061H163.353ZM165.999 20.6221H167.295C168.735 20.6221 169.455 19.9981 169.455 18.7501C169.455 18.1381 169.263 17.7061 168.879 17.4541C168.495 17.2021 167.943 17.0761 167.223 17.0761H165.999V20.6221ZM174.075 26.7061V14.9701H178.305C178.929 14.9701 179.511 15.0301 180.051 15.1501C180.603 15.2701 181.083 15.4741 181.491 15.7621C181.899 16.0381 182.223 16.4101 182.463 16.8781C182.703 17.3461 182.823 17.9281 182.823 18.6241C182.823 19.4881 182.631 20.2021 182.247 20.7661C181.875 21.3181 181.371 21.7321 180.735 22.0081L183.399 26.7061H180.429L178.179 22.4761H176.721V26.7061H174.075ZM176.721 20.3701H178.089C178.785 20.3701 179.313 20.2261 179.673 19.9381C180.045 19.6381 180.231 19.2001 180.231 18.6241C180.231 18.0481 180.045 17.6461 179.673 17.4181C179.313 17.1901 178.785 17.0761 178.089 17.0761H176.721V20.3701ZM189.885 26.9221C189.093 26.9221 188.367 26.7841 187.707 26.5081C187.059 26.2201 186.501 25.8121 186.033 25.2841C185.565 24.7561 185.199 24.1141 184.935 23.3581C184.683 22.6021 184.557 21.7441 184.557 20.7841C184.557 19.8241 184.683 18.9721 184.935 18.2281C185.199 17.4721 185.565 16.8421 186.033 16.3381C186.501 15.8221 187.059 15.4321 187.707 15.1681C188.367 14.8921 189.093 14.7541 189.885 14.7541C190.677 14.7541 191.397 14.8921 192.045 15.1681C192.705 15.4321 193.269 15.8221 193.737 16.3381C194.205 16.8541 194.565 17.4901 194.817 18.2461C195.081 18.9901 195.213 19.8361 195.213 20.7841C195.213 21.7441 195.081 22.6021 194.817 23.3581C194.565 24.1141 194.205 24.7561 193.737 25.2841C193.269 25.8121 192.705 26.2201 192.045 26.5081C191.397 26.7841 190.677 26.9221 189.885 26.9221ZM189.885 24.6361C190.689 24.6361 191.325 24.2941 191.793 23.6101C192.261 22.9141 192.495 21.9721 192.495 20.7841C192.495 19.6081 192.261 18.6901 191.793 18.0301C191.325 17.3701 190.689 17.0401 189.885 17.0401C189.081 17.0401 188.445 17.3701 187.977 18.0301C187.509 18.6901 187.275 19.6081 187.275 20.7841C187.275 21.9721 187.509 22.9141 187.977 23.6101C188.445 24.2941 189.081 24.6361 189.885 24.6361Z" fill="white"/>
</svg>
