<svg width="188" height="76" viewBox="0 0 188 76" fill="none" xmlns="http://www.w3.org/2000/svg">
<path d="M7.92 44C6.256 44 5.072 43.664 4.368 42.992C3.696 42.288 3.36 41.104 3.36 39.44V14.96C3.36 13.296 3.696 12.128 4.368 11.456C5.072 10.752 6.256 10.4 7.92 10.4H17.28C17.792 10.4 18.112 10.496 18.24 10.688C18.4 10.848 18.48 11.184 18.48 11.696V13.184H9.456C8.464 13.184 7.84 13.392 7.584 13.808C7.328 14.224 7.2 14.928 7.2 15.92V38.48C7.2 39.472 7.328 40.176 7.584 40.592C7.84 41.008 8.464 41.216 9.456 41.216H13.296C14.288 41.216 14.912 41.008 15.168 40.592C15.424 40.176 15.552 39.472 15.552 38.48V27.968H11.424V26.48C11.424 25.968 11.504 25.632 11.664 25.472C11.856 25.28 12.208 25.184 12.72 25.184H19.392V39.44C19.392 41.104 19.04 42.288 18.336 42.992C17.632 43.664 16.448 44 14.784 44H7.92ZM29.5616 27.968V41.216H38.7296V42.704C38.7296 43.216 38.6336 43.568 38.4416 43.76C38.2816 43.92 37.9456 44 37.4336 44H25.7216V11.696C25.7216 11.184 25.8016 10.848 25.9616 10.688C26.1536 10.496 26.5056 10.4 27.0176 10.4H38.7296V11.888C38.7296 12.4 38.6496 12.752 38.4896 12.944C38.3616 13.104 38.0416 13.184 37.5296 13.184H29.5616V25.184H37.2896V26.672C37.2896 27.184 37.2096 27.536 37.0496 27.728C36.9216 27.888 36.6016 27.968 36.0896 27.968H29.5616ZM60.0259 10.4V11.888C60.0259 12.4 59.9299 12.752 59.7379 12.944C59.5779 13.104 59.2419 13.184 58.7299 13.184H52.9699V42.704C52.9699 43.216 52.8739 43.568 52.6819 43.76C52.5219 43.92 52.1859 44 51.6739 44H49.1299V13.184H42.1699V11.696C42.1699 11.184 42.2499 10.848 42.4099 10.688C42.6019 10.496 42.9539 10.4 43.4659 10.4H60.0259Z" fill="#344FA1"/>
<path d="M2.736 64.988V70.514C2.736 70.706 2.7 70.838 2.628 70.91C2.568 70.97 2.442 71 2.25 71H1.296V60.11C1.296 59.486 1.422 59.048 1.674 58.796C1.938 58.532 2.382 58.4 3.006 58.4H5.598C6.222 58.4 6.66 58.532 6.912 58.796C7.176 59.048 7.308 59.486 7.308 60.11V70.514C7.308 70.706 7.272 70.838 7.2 70.91C7.14 70.97 7.014 71 6.822 71H5.868V60.47C5.868 60.122 5.82 59.87 5.724 59.714C5.64 59.558 5.442 59.468 5.13 59.444H3.474C3.15 59.468 2.946 59.558 2.862 59.714C2.778 59.87 2.736 60.122 2.736 60.47V63.944H5.148V64.502C5.148 64.694 5.118 64.826 5.058 64.898C5.01 64.958 4.89 64.988 4.698 64.988H2.736ZM14.8298 70.514C14.8298 70.706 14.7938 70.838 14.7218 70.91C14.6618 70.97 14.5358 71 14.3438 71H13.3898V59.894C13.3898 59.402 13.5098 59.054 13.7498 58.85C13.9898 58.646 14.3498 58.496 14.8298 58.4V70.514ZM18.7291 68.93C18.7291 69.302 18.7771 69.566 18.8731 69.722C18.9691 69.878 19.2031 69.956 19.5751 69.956H20.5651C20.9371 69.956 21.1711 69.878 21.2671 69.722C21.3631 69.566 21.4111 69.302 21.4111 68.93V60.47C21.4111 60.098 21.3631 59.834 21.2671 59.678C21.1711 59.522 20.9371 59.444 20.5651 59.444H19.5751C19.2031 59.444 18.9691 59.522 18.8731 59.678C18.7771 59.834 18.7291 60.098 18.7291 60.47V68.93ZM17.3791 60.11C17.3791 59.486 17.5051 59.048 17.7571 58.796C18.0211 58.532 18.4651 58.4 19.0891 58.4H21.0511C21.6751 58.4 22.1131 58.532 22.3651 58.796C22.6291 59.048 22.7611 59.486 22.7611 60.11V69.29C22.7611 69.914 22.6291 70.358 22.3651 70.622C22.1131 70.874 21.6751 71 21.0511 71H19.0891C18.4651 71 18.0211 70.874 17.7571 70.622C17.5051 70.358 17.3791 69.914 17.3791 69.29V60.11ZM26.6393 68.93C26.6393 69.302 26.6873 69.566 26.7833 69.722C26.8793 69.878 27.1133 69.956 27.4853 69.956H28.4753C28.8473 69.956 29.0813 69.878 29.1773 69.722C29.2733 69.566 29.3213 69.302 29.3213 68.93V60.47C29.3213 60.098 29.2733 59.834 29.1773 59.678C29.0813 59.522 28.8473 59.444 28.4753 59.444H27.4853C27.1133 59.444 26.8793 59.522 26.7833 59.678C26.6873 59.834 26.6393 60.098 26.6393 60.47V68.93ZM25.2893 60.11C25.2893 59.486 25.4153 59.048 25.6673 58.796C25.9313 58.532 26.3753 58.4 26.9993 58.4H28.9613C29.5853 58.4 30.0233 58.532 30.2753 58.796C30.5393 59.048 30.6713 59.486 30.6713 60.11V69.29C30.6713 69.914 30.5393 70.358 30.2753 70.622C30.0233 70.874 29.5853 71 28.9613 71H26.9993C26.3753 71 25.9313 70.874 25.6673 70.622C25.4153 70.358 25.2893 69.914 25.2893 69.29V60.11ZM44.7431 58.4L38.8391 70.514C38.7431 70.706 38.6471 70.838 38.5511 70.91C38.4551 70.97 38.3111 71 38.1191 71H37.1651L43.0691 58.886C43.1651 58.694 43.2611 58.568 43.3571 58.508C43.4531 58.436 43.5971 58.4 43.7891 58.4H44.7431ZM37.9211 63.62C37.6091 63.62 37.3511 63.602 37.1471 63.566C36.9551 63.518 36.7991 63.44 36.6791 63.332C36.5711 63.212 36.4931 63.056 36.4451 62.864C36.4091 62.66 36.3911 62.402 36.3911 62.09V59.93C36.3911 59.618 36.4091 59.366 36.4451 59.174C36.4931 58.97 36.5711 58.814 36.6791 58.706C36.7991 58.586 36.9551 58.508 37.1471 58.472C37.3511 58.424 37.6091 58.4 37.9211 58.4H38.7131C39.0251 58.4 39.2771 58.424 39.4691 58.472C39.6731 58.508 39.8291 58.586 39.9371 58.706C40.0571 58.814 40.1351 58.97 40.1711 59.174C40.2191 59.366 40.2431 59.618 40.2431 59.93V62.09C40.2431 62.402 40.2191 62.66 40.1711 62.864C40.1351 63.056 40.0571 63.212 39.9371 63.332C39.8291 63.44 39.6731 63.518 39.4691 63.566C39.2771 63.602 39.0251 63.62 38.7131 63.62H37.9211ZM37.5611 61.82C37.5611 62.192 37.6151 62.426 37.7231 62.522C37.8311 62.618 38.0291 62.666 38.3171 62.666C38.6171 62.666 38.8151 62.618 38.9111 62.522C39.0191 62.426 39.0731 62.192 39.0731 61.82V60.2C39.0731 59.828 39.0191 59.594 38.9111 59.498C38.8031 59.402 38.6051 59.354 38.3171 59.354C38.0171 59.354 37.8131 59.402 37.7051 59.498C37.6091 59.594 37.5611 59.828 37.5611 60.2V61.82ZM43.5731 71C43.2611 71 43.0031 70.982 42.7991 70.946C42.6071 70.898 42.4511 70.82 42.3311 70.712C42.2231 70.592 42.1451 70.436 42.0971 70.244C42.0611 70.04 42.0431 69.782 42.0431 69.47V67.31C42.0431 66.998 42.0611 66.746 42.0971 66.554C42.1451 66.35 42.2231 66.194 42.3311 66.086C42.4511 65.966 42.6071 65.888 42.7991 65.852C43.0031 65.804 43.2611 65.78 43.5731 65.78H44.3651C44.6771 65.78 44.9291 65.804 45.1211 65.852C45.3251 65.888 45.4811 65.966 45.5891 66.086C45.7091 66.194 45.7871 66.35 45.8231 66.554C45.8711 66.746 45.8951 66.998 45.8951 67.31V69.47C45.8951 69.782 45.8711 70.04 45.8231 70.244C45.7871 70.436 45.7091 70.592 45.5891 70.712C45.4811 70.82 45.3251 70.898 45.1211 70.946C44.9291 70.982 44.6771 71 44.3651 71H43.5731ZM43.2131 69.2C43.2131 69.572 43.2671 69.806 43.3751 69.902C43.4831 69.998 43.6811 70.046 43.9691 70.046C44.2691 70.046 44.4671 69.998 44.5631 69.902C44.6711 69.806 44.7251 69.572 44.7251 69.2V67.58C44.7251 67.208 44.6711 66.974 44.5631 66.878C44.4551 66.782 44.2571 66.734 43.9691 66.734C43.6691 66.734 43.4651 66.782 43.3571 66.878C43.2611 66.974 43.2131 67.208 43.2131 67.58V69.2ZM55.3842 58.4C55.5762 58.4 55.6962 58.436 55.7442 58.508C55.8042 58.568 55.8342 58.694 55.8342 58.886V59.444H53.8002C53.6202 59.444 53.4702 59.456 53.3502 59.48C53.2422 59.504 53.1582 59.552 53.0982 59.624C53.0382 59.696 52.9962 59.798 52.9722 59.93C52.9602 60.062 52.9542 60.242 52.9542 60.47V61.856H54.7182C54.9102 61.856 55.0302 61.892 55.0782 61.964C55.1382 62.024 55.1682 62.15 55.1682 62.342V62.9H52.9542V70.514C52.9542 70.706 52.9182 70.838 52.8462 70.91C52.7862 70.97 52.6602 71 52.4682 71H51.5142V60.11C51.5142 59.486 51.6402 59.048 51.8922 58.796C52.1562 58.532 52.6002 58.4 53.2242 58.4H55.3842ZM58.3502 62.9V70.514C58.3502 70.706 58.3142 70.838 58.2422 70.91C58.1822 70.97 58.0562 71 57.8642 71H56.9102V62.342C56.9102 62.15 56.9402 62.024 57.0002 61.964C57.0722 61.892 57.2042 61.856 57.3962 61.856H58.3502V62.9C58.5062 62.492 58.6682 62.216 58.8362 62.072C59.0042 61.928 59.2622 61.856 59.6102 61.856H60.3122C60.5042 61.856 60.6242 61.892 60.6722 61.964C60.7322 62.024 60.7622 62.15 60.7622 62.342V62.9H58.3502ZM67.3245 69.956V70.514C67.3245 70.706 67.2945 70.838 67.2345 70.91C67.1865 70.97 67.0665 71 66.8745 71H64.1565C63.5325 71 63.0885 70.874 62.8245 70.622C62.5725 70.358 62.4465 69.914 62.4465 69.29V63.566C62.4465 62.942 62.5725 62.504 62.8245 62.252C63.0885 61.988 63.5325 61.856 64.1565 61.856H66.1365C66.7605 61.856 67.1985 61.988 67.4505 62.252C67.7145 62.504 67.8465 62.942 67.8465 63.566V65.582C67.8465 66.206 67.7145 66.65 67.4505 66.914C67.1985 67.166 66.7605 67.292 66.1365 67.292H65.0565C64.8645 67.292 64.7385 67.262 64.6785 67.202C64.6305 67.13 64.6065 66.998 64.6065 66.806V66.248H65.6505C66.0225 66.248 66.2565 66.17 66.3525 66.014C66.4485 65.858 66.4965 65.594 66.4965 65.222V63.836C66.4965 63.464 66.4365 63.218 66.3165 63.098C66.1965 62.966 65.9505 62.9 65.5785 62.9H64.8045C64.4085 62.9 64.1565 62.972 64.0485 63.116C63.9405 63.248 63.8865 63.518 63.8865 63.926V68.93C63.8865 69.302 63.9345 69.566 64.0305 69.722C64.1265 69.878 64.3605 69.956 64.7325 69.956H67.3245ZM74.76 69.956V70.514C74.76 70.706 74.73 70.838 74.67 70.91C74.622 70.97 74.502 71 74.31 71H71.592C70.968 71 70.524 70.874 70.26 70.622C70.008 70.358 69.882 69.914 69.882 69.29V63.566C69.882 62.942 70.008 62.504 70.26 62.252C70.524 61.988 70.968 61.856 71.592 61.856H73.572C74.196 61.856 74.634 61.988 74.886 62.252C75.15 62.504 75.282 62.942 75.282 63.566V65.582C75.282 66.206 75.15 66.65 74.886 66.914C74.634 67.166 74.196 67.292 73.572 67.292H72.492C72.3 67.292 72.174 67.262 72.114 67.202C72.066 67.13 72.042 66.998 72.042 66.806V66.248H73.086C73.458 66.248 73.692 66.17 73.788 66.014C73.884 65.858 73.932 65.594 73.932 65.222V63.836C73.932 63.464 73.872 63.218 73.752 63.098C73.632 62.966 73.386 62.9 73.014 62.9H72.24C71.844 62.9 71.592 62.972 71.484 63.116C71.376 63.248 71.322 63.518 71.322 63.926V68.93C71.322 69.302 71.37 69.566 71.466 69.722C71.562 69.878 71.796 69.956 72.168 69.956H74.76ZM85.3332 74.618V62.342C85.3332 62.15 85.3632 62.024 85.4232 61.964C85.4952 61.892 85.6272 61.856 85.8192 61.856H86.7732V74.132C86.7732 74.324 86.7372 74.45 86.6652 74.51C86.6052 74.582 86.4792 74.618 86.2872 74.618H85.3332ZM82.5432 71C81.9192 71 81.4752 70.874 81.2112 70.622C80.9592 70.358 80.8332 69.914 80.8332 69.29V63.566C80.8332 62.942 80.9592 62.504 81.2112 62.252C81.4752 61.988 81.9192 61.856 82.5432 61.856H84.2532C84.6012 61.856 84.8472 61.946 84.9912 62.126C85.1472 62.294 85.2612 62.552 85.3332 62.9H83.1192C82.7472 62.9 82.5132 62.978 82.4172 63.134C82.3212 63.29 82.2732 63.554 82.2732 63.926V68.93C82.2732 69.302 82.3212 69.566 82.4172 69.722C82.5132 69.878 82.7472 69.956 83.1192 69.956H84.6132V70.514C84.6132 70.706 84.5832 70.838 84.5232 70.91C84.4752 70.97 84.3552 71 84.1632 71H82.5432ZM90.5709 62.9V70.514C90.5709 70.706 90.5349 70.838 90.4629 70.91C90.4029 70.97 90.2769 71 90.0849 71H89.1309V62.342C89.1309 62.15 89.1609 62.024 89.2209 61.964C89.2929 61.892 89.4249 61.856 89.6169 61.856H90.5709V62.9C90.7269 62.492 90.8889 62.216 91.0569 62.072C91.2249 61.928 91.4829 61.856 91.8309 61.856H92.5329C92.7249 61.856 92.8449 61.892 92.8929 61.964C92.9529 62.024 92.9829 62.15 92.9829 62.342V62.9H90.5709ZM102.233 61.856C102.425 61.856 102.545 61.892 102.593 61.964C102.653 62.024 102.683 62.15 102.683 62.342V62.9H100.469C100.097 62.9 99.8628 62.978 99.7668 63.134C99.6708 63.29 99.6228 63.554 99.6228 63.926V68.93C99.6228 69.302 99.6708 69.566 99.7668 69.722C99.8628 69.878 100.097 69.956 100.469 69.956H102.683V70.514C102.683 70.706 102.653 70.838 102.593 70.91C102.545 70.97 102.425 71 102.233 71H99.8928C99.2688 71 98.8248 70.874 98.5608 70.622C98.3088 70.358 98.1828 69.914 98.1828 69.29V63.566C98.1828 62.942 98.3088 62.504 98.5608 62.252C98.8248 61.988 99.2688 61.856 99.8928 61.856H102.233ZM104.581 63.566C104.581 62.942 104.707 62.504 104.959 62.252C105.223 61.988 105.667 61.856 106.291 61.856H108.811C109.435 61.856 109.873 61.988 110.125 62.252C110.389 62.504 110.521 62.942 110.521 63.566V69.29C110.521 69.914 110.389 70.358 110.125 70.622C109.873 70.874 109.435 71 108.811 71H106.291C105.667 71 105.223 70.874 104.959 70.622C104.707 70.358 104.581 69.914 104.581 69.29V63.566ZM106.867 62.9C106.495 62.9 106.261 62.978 106.165 63.134C106.069 63.29 106.021 63.554 106.021 63.926V68.93C106.021 69.302 106.069 69.566 106.165 69.722C106.261 69.878 106.495 69.956 106.867 69.956H108.235C108.607 69.956 108.841 69.878 108.937 69.722C109.033 69.566 109.081 69.302 109.081 68.93V63.926C109.081 63.554 109.033 63.29 108.937 63.134C108.841 62.978 108.607 62.9 108.235 62.9H106.867ZM118.73 58.4V70.514C118.73 70.706 118.694 70.838 118.622 70.91C118.562 70.97 118.436 71 118.244 71H117.29V58.886C117.29 58.694 117.32 58.568 117.38 58.508C117.452 58.436 117.584 58.4 117.776 58.4H118.73ZM114.5 71C113.876 71 113.432 70.874 113.168 70.622C112.916 70.358 112.79 69.914 112.79 69.29V63.566C112.79 62.942 112.916 62.504 113.168 62.252C113.432 61.988 113.876 61.856 114.5 61.856H116.21C116.558 61.856 116.804 61.946 116.948 62.126C117.104 62.294 117.218 62.552 117.29 62.9H115.076C114.704 62.9 114.47 62.978 114.374 63.134C114.278 63.29 114.23 63.554 114.23 63.926V68.93C114.23 69.302 114.278 69.566 114.374 69.722C114.47 69.878 114.704 69.956 115.076 69.956H116.57V70.514C116.57 70.706 116.54 70.838 116.48 70.91C116.432 70.97 116.312 71 116.12 71H114.5ZM125.912 69.956V70.514C125.912 70.706 125.882 70.838 125.822 70.91C125.774 70.97 125.654 71 125.462 71H122.744C122.12 71 121.676 70.874 121.412 70.622C121.16 70.358 121.034 69.914 121.034 69.29V63.566C121.034 62.942 121.16 62.504 121.412 62.252C121.676 61.988 122.12 61.856 122.744 61.856H124.724C125.348 61.856 125.786 61.988 126.038 62.252C126.302 62.504 126.434 62.942 126.434 63.566V65.582C126.434 66.206 126.302 66.65 126.038 66.914C125.786 67.166 125.348 67.292 124.724 67.292H123.644C123.452 67.292 123.326 67.262 123.266 67.202C123.218 67.13 123.194 66.998 123.194 66.806V66.248H124.238C124.61 66.248 124.844 66.17 124.94 66.014C125.036 65.858 125.084 65.594 125.084 65.222V63.836C125.084 63.464 125.024 63.218 124.904 63.098C124.784 62.966 124.538 62.9 124.166 62.9H123.392C122.996 62.9 122.744 62.972 122.636 63.116C122.528 63.248 122.474 63.518 122.474 63.926V68.93C122.474 69.302 122.522 69.566 122.618 69.722C122.714 69.878 122.948 69.956 123.32 69.956H125.912ZM133.696 71C133.072 71 132.628 70.874 132.364 70.622C132.112 70.358 131.986 69.914 131.986 69.29V63.566C131.986 62.942 132.112 62.504 132.364 62.252C132.628 61.988 133.072 61.856 133.696 61.856H135.406C135.754 61.856 136 61.946 136.144 62.126C136.3 62.294 136.414 62.552 136.486 62.9H134.272C133.9 62.9 133.666 62.978 133.57 63.134C133.474 63.29 133.426 63.554 133.426 63.926V68.93C133.426 69.302 133.474 69.566 133.57 69.722C133.666 69.878 133.9 69.956 134.272 69.956H135.766V70.514C135.766 70.706 135.736 70.838 135.676 70.91C135.628 70.97 135.508 71 135.316 71H133.696ZM132.436 74.618C132.244 74.618 132.118 74.582 132.058 74.51C132.01 74.45 131.986 74.324 131.986 74.132V73.574H135.64C135.82 73.574 135.964 73.562 136.072 73.538C136.192 73.514 136.282 73.466 136.342 73.394C136.402 73.322 136.438 73.22 136.45 73.088C136.474 72.956 136.486 72.776 136.486 72.548V62.342C136.486 62.15 136.516 62.024 136.576 61.964C136.648 61.892 136.78 61.856 136.972 61.856H137.926V72.908C137.926 73.532 137.794 73.97 137.53 74.222C137.278 74.486 136.84 74.618 136.216 74.618H132.436ZM145.371 69.956V70.514C145.371 70.706 145.341 70.838 145.281 70.91C145.233 70.97 145.113 71 144.921 71H142.203C141.579 71 141.135 70.874 140.871 70.622C140.619 70.358 140.493 69.914 140.493 69.29V63.566C140.493 62.942 140.619 62.504 140.871 62.252C141.135 61.988 141.579 61.856 142.203 61.856H144.183C144.807 61.856 145.245 61.988 145.497 62.252C145.761 62.504 145.893 62.942 145.893 63.566V65.582C145.893 66.206 145.761 66.65 145.497 66.914C145.245 67.166 144.807 67.292 144.183 67.292H143.103C142.911 67.292 142.785 67.262 142.725 67.202C142.677 67.13 142.653 66.998 142.653 66.806V66.248H143.697C144.069 66.248 144.303 66.17 144.399 66.014C144.495 65.858 144.543 65.594 144.543 65.222V63.836C144.543 63.464 144.483 63.218 144.363 63.098C144.243 62.966 143.997 62.9 143.625 62.9H142.851C142.455 62.9 142.203 62.972 142.095 63.116C141.987 63.248 141.933 63.518 141.933 63.926V68.93C141.933 69.302 141.981 69.566 142.077 69.722C142.173 69.878 142.407 69.956 142.779 69.956H145.371ZM152.195 61.856C152.819 61.856 153.257 61.988 153.509 62.252C153.773 62.504 153.905 62.942 153.905 63.566V70.514C153.905 70.706 153.869 70.838 153.797 70.91C153.737 70.97 153.611 71 153.419 71H152.465V63.926C152.465 63.554 152.417 63.29 152.321 63.134C152.225 62.978 151.991 62.9 151.619 62.9H149.405V70.514C149.405 70.706 149.369 70.838 149.297 70.91C149.237 70.97 149.111 71 148.919 71H147.965V62.342C147.965 62.15 147.995 62.024 148.055 61.964C148.127 61.892 148.259 61.856 148.451 61.856H149.405V62.9C149.477 62.552 149.585 62.294 149.729 62.126C149.885 61.946 150.137 61.856 150.485 61.856H152.195ZM157.667 62.9V70.514C157.667 70.706 157.631 70.838 157.559 70.91C157.499 70.97 157.373 71 157.181 71H156.227V62.342C156.227 62.15 156.257 62.024 156.317 61.964C156.389 61.892 156.521 61.856 156.713 61.856H157.667V62.9C157.823 62.492 157.985 62.216 158.153 62.072C158.321 61.928 158.579 61.856 158.927 61.856H159.629C159.821 61.856 159.941 61.892 159.989 61.964C160.049 62.024 160.079 62.15 160.079 62.342V62.9H157.667ZM165.867 63.926C165.867 63.554 165.819 63.29 165.723 63.134C165.627 62.978 165.393 62.9 165.021 62.9H161.907C161.979 62.552 162.087 62.294 162.231 62.126C162.387 61.946 162.639 61.856 162.987 61.856H165.597C166.221 61.856 166.659 61.988 166.911 62.252C167.175 62.504 167.307 62.942 167.307 63.566V71H166.353C166.161 71 166.029 70.97 165.957 70.91C165.897 70.838 165.867 70.706 165.867 70.514V63.926ZM163.257 71C162.633 71 162.189 70.874 161.925 70.622C161.673 70.358 161.547 69.914 161.547 69.29V67.31C161.547 66.686 161.673 66.248 161.925 65.996C162.189 65.732 162.633 65.6 163.257 65.6H164.787C165.135 65.6 165.381 65.69 165.525 65.87C165.681 66.038 165.795 66.296 165.867 66.644H163.833C163.461 66.644 163.227 66.722 163.131 66.878C163.035 67.034 162.987 67.298 162.987 67.67V69.074C162.987 69.446 163.053 69.686 163.185 69.794C163.329 69.902 163.587 69.956 163.959 69.956H165.147V70.514C165.147 70.706 165.117 70.838 165.057 70.91C165.009 70.97 164.889 71 164.697 71H163.257ZM172.861 61.856C173.053 61.856 173.173 61.892 173.221 61.964C173.281 62.024 173.311 62.15 173.311 62.342V62.9H171.097V68.93C171.097 69.302 171.145 69.566 171.241 69.722C171.337 69.878 171.571 69.956 171.943 69.956H173.509C173.485 70.304 173.413 70.568 173.293 70.748C173.185 70.916 172.957 71 172.609 71H171.367C170.743 71 170.299 70.874 170.035 70.622C169.783 70.358 169.657 69.914 169.657 69.29V60.254C169.657 60.062 169.687 59.936 169.747 59.876C169.819 59.804 169.951 59.768 170.143 59.768H171.097V61.856H172.861ZM175.07 63.566C175.07 62.942 175.196 62.504 175.448 62.252C175.712 61.988 176.156 61.856 176.78 61.856H179.3C179.924 61.856 180.362 61.988 180.614 62.252C180.878 62.504 181.01 62.942 181.01 63.566V69.29C181.01 69.914 180.878 70.358 180.614 70.622C180.362 70.874 179.924 71 179.3 71H176.78C176.156 71 175.712 70.874 175.448 70.622C175.196 70.358 175.07 69.914 175.07 69.29V63.566ZM177.356 62.9C176.984 62.9 176.75 62.978 176.654 63.134C176.558 63.29 176.51 63.554 176.51 63.926V68.93C176.51 69.302 176.558 69.566 176.654 69.722C176.75 69.878 176.984 69.956 177.356 69.956H178.724C179.096 69.956 179.33 69.878 179.426 69.722C179.522 69.566 179.57 69.302 179.57 68.93V63.926C179.57 63.554 179.522 63.29 179.426 63.134C179.33 62.978 179.096 62.9 178.724 62.9H177.356ZM184.755 62.9V70.514C184.755 70.706 184.719 70.838 184.647 70.91C184.587 70.97 184.461 71 184.269 71H183.315V62.342C183.315 62.15 183.345 62.024 183.405 61.964C183.477 61.892 183.609 61.856 183.801 61.856H184.755V62.9C184.911 62.492 185.073 62.216 185.241 62.072C185.409 61.928 185.667 61.856 186.015 61.856H186.717C186.909 61.856 187.029 61.892 187.077 61.964C187.137 62.024 187.167 62.15 187.167 62.342V62.9H184.755Z" fill="#344FA1"/>
<path d="M125.36 13.96C125.36 12.296 125.696 11.128 126.368 10.456C127.072 9.752 128.256 9.4 129.92 9.4H137.312C138.976 9.4 140.144 9.752 140.816 10.456C141.52 11.128 141.872 12.296 141.872 13.96V38.44C141.872 40.104 141.52 41.288 140.816 41.992C140.144 42.664 138.976 43 137.312 43H134.624V43.384C134.624 44.504 134.768 45.24 135.056 45.592C135.344 45.944 135.952 46.12 136.88 46.12H138.944V47.608C138.944 48.12 138.864 48.456 138.704 48.616C138.576 48.808 138.256 48.904 137.744 48.904H135.92C134.544 48.904 133.52 48.552 132.848 47.848C132.176 47.144 131.84 45.976 131.84 44.344V43H129.92C128.256 43 127.072 42.664 126.368 41.992C125.696 41.288 125.36 40.104 125.36 38.44V13.96ZM129.2 37.48C129.2 38.472 129.328 39.176 129.584 39.592C129.84 40.008 130.464 40.216 131.456 40.216H135.776C136.768 40.216 137.392 40.008 137.648 39.592C137.904 39.176 138.032 38.472 138.032 37.48V14.92C138.032 13.928 137.904 13.224 137.648 12.808C137.392 12.392 136.768 12.184 135.776 12.184H131.456C130.464 12.184 129.84 12.392 129.584 12.808C129.328 13.224 129.2 13.928 129.2 14.92V37.48ZM158.402 24.184C159.394 24.184 160.018 23.976 160.274 23.56C160.53 23.144 160.658 22.44 160.658 21.448V14.92C160.658 13.928 160.53 13.224 160.274 12.808C160.018 12.392 159.394 12.184 158.402 12.184H152.546V41.704C152.546 42.216 152.45 42.568 152.258 42.76C152.098 42.92 151.762 43 151.25 43H148.706V10.696C148.706 10.184 148.786 9.848 148.946 9.688C149.138 9.496 149.49 9.4 150.002 9.4H159.938C161.602 9.4 162.77 9.752 163.442 10.456C164.146 11.128 164.498 12.296 164.498 13.96V22.408C164.498 23.912 164.226 25.016 163.682 25.72C163.138 26.392 162.21 26.792 160.898 26.92L165.746 43H163.298C162.786 43 162.402 42.92 162.146 42.76C161.922 42.568 161.73 42.216 161.57 41.704L157.106 26.968H155.666C155.154 26.968 154.818 26.888 154.658 26.728C154.53 26.536 154.466 26.184 154.466 25.672V24.184H158.402Z" fill="#344FA1"/>
<path d="M71 28.2857H87.2857V12H71V28.2857ZM76.4286 17.4286H81.8571V22.8571H76.4286V17.4286ZM92.7143 12V28.2857H109V12H92.7143ZM103.571 22.8571H98.1429V17.4286H103.571V22.8571ZM71 50H87.2857V33.7143H71V50ZM76.4286 39.1429H81.8571V44.5714H76.4286V39.1429ZM106.286 33.7143H109V44.5714H100.857V41.8571H98.1429V50H92.7143V33.7143H100.857V36.4286H106.286V33.7143ZM106.286 47.2857H109V50H106.286V47.2857ZM100.857 47.2857H103.571V50H100.857V47.2857Z" fill="#344FA1"/>
</svg>
